<mxfile host="app.diagrams.net" modified="2024-01-12T03:17:30.354Z" agent="Mozilla/5.0 (X11; Linux x86_64) AppleWebKit/537.36 (KHTML, like Gecko) Chrome/120.0.0.0 Safari/537.36 Edg/120.0.0.0" etag="5lRF4SD19kU7dBt1RrBJ" version="22.1.18" type="github">
  <diagram name="Page-1" id="_vngl1esKhvP8fhIEHNJ">
    <mxGraphModel dx="1386" dy="765" grid="1" gridSize="10" guides="1" tooltips="1" connect="1" arrows="1" fold="1" page="1" pageScale="1" pageWidth="850" pageHeight="1100" math="0" shadow="0">
      <root>
        <mxCell id="0" />
        <mxCell id="1" parent="0" />
        <mxCell id="r7BZuEesni4fPCG0NWLC-1" value="&lt;font style=&quot;font-size: 18px;&quot;&gt;Payment failures&lt;/font&gt;" style="rounded=0;whiteSpace=wrap;html=1;" vertex="1" parent="1">
          <mxGeometry x="20" y="280" width="220" height="60" as="geometry" />
        </mxCell>
        <mxCell id="r7BZuEesni4fPCG0NWLC-2" value="" style="shape=image;verticalLabelPosition=bottom;labelBackgroundColor=default;verticalAlign=top;aspect=fixed;imageAspect=0;image=data:image/png,iVBORw0KGgoAAAANSUhEUgAAAZUAAACECAYAAABYpraxAAAABHNCSVQICAgIfAhkiAAAABl0RVh0U29mdHdhcmUAZ25vbWUtc2NyZWVuc2hvdO8Dvz4AAABAaVRYdENyZWF0aW9uIFRpbWUAAAAAAFRo4bupIHPDoXUsIDEyIFRow6FuZyAxIE7Eg20gMjAyNCAwOToyOToyNSArMDcxMItfAAAgAElEQVR4nO3deXSb533g+++7ASC4iaJEQlxEmhRFmhRFi5bpSrJlWx5biZckzjStnTpN0jOeaacn08ycmzY9zc3p9LR35nZup3Onp+1NPLdOm9zax55xYiu2YyvelEiKZZkSTYmmFlKEuJiECEIkQRDAuzz3D4AiCIISF9CU5Odzjs4RwHd53gfP+/ye5V2UzdWPCCRJkiQpC9S1ToAkSZJ085BBRZIkScoaGVQkSZKkrJFBRZIkScoaGVQkSZKkrJFBRZIkScoaGVQkSZKkrJFBRZIkScoaGVQkSZKkrJFBRZIkScoaGVQkSZKkrJFBRZIkScoaGVQkSZKkrJFBRZIkScoaGVQkSZKkrNHXOgGSBIBHpeazLmprFdwGIBy6/j5G7/haJ0xaOYPa/Z/nXz1Wz5aSfHInj/PHX/+fdDhrnS5pNaxdUNniYv+vqww/F6XDr9L8DTdlF+K8fsBesyRd3xQKtmtsyhH0vWcTW+vkZJVC8X0uGushcCTOwCiA4PLUWqfrxlZ0v4c9dzi0/19xhop17v26TuTVGMc+/ITfy1e6i9//Nzup+fgk//R/n6Tn0gjnZUC5acmeyg1DUNhkUFdsEThmE7uZ3tepwIZKBYZMOg7dbAFTctWVUemCj175CS++G13r5EirTM6pSNcBBZcHiApkA/YmlOMhF5OpCTkK8WlwnfdUVOqfclNnW3ScVth8h0ZhnsAec+j/pUl319xKyF2ts3WHRnG5gjdPQbUE4SGHi4dNev0zTXsF32Medm5x6Py7GP60IZaCe9zs3aXQ+8MoXWMau/7AhdFpEanUKckTjB6K0+MxaG1TMCIO3S+a9A6ndBt0hZLdBnWNGoXrgKhg/IJF988tgin7SgxNCLqes/C06ZRvVnEjmDhjcvI1mwkrmQPbXDz0qJaSQp0935792WInYxx8bRlVcb7Ont83cHfGOefo1DUoeHWFyLDFuTcs+kfmd4WK9nvYs0PQ+b04TpuL2nqFPC+YE4L+N2J0nV9GHrQps1/Uutj/x8n/Z5pTyVWpuddgc21yv2EIdpp0HbaJWHPTqja4+MxjKoGXYvTkGTS2ahSuExCF8ffjHD48k2cKedt0Gu7QKN6gYIhEmbnwbhz/YMoGPRpt33RR2BGnfUyj4XaNwoJEWex70+RMz/z8Uos0au/SKb9FwesFOwwTPRZnf2kRnFzmcfk0mu4z8JWDWwczIggPOFx422QoNC8JkvSJW7ugYgrCY4KoCSCIhhzCEwuM6ZRoNLscTr8WpSOsUNxm0PQ5Nx4nSnv37GKFzQZlpQ6XztpcDDrYbpXSbRqNT7jwPBunyy8AQeBDm1iDSkWTgv9Yyj4VlYpbVQhaXBwEchJfF9yiMHLExLxNp3Kfi6Ihm3NvQeldOg132/S/YGMm16/6kpvmKkGo0+T0MYGWr1Gxw2DXbykc/SeTYGrvX1Gpe0hn6IjJe++Ct96gZY+L1qko77yVSJfTY3H0WQtQKN3noqbApuuAxXiy0edMrqxt7202aOi16HjWIaIr3PKAi5YvK/APcfoXmCSveNSN27Tp+bnDdBxyajTWeRVALCkPxtvjHO0BNJXaRw1Kxi2Ov53MSyEIpwb8fI2dX3XhMwRDHRYXxsC1SaN6l4s96+Mc+nHmYTPv7S525gguHotzbhz0DRpVhQoq4KBQtNfFrj0K0T6b3rcc4rrKxhaN5ic8uH4U49zw3DJp1Bs0D1p0v2wS0VW2PGhQ9zmDye/HGUpJr1qqs+vLBkU4DH9ocSEooECltEHnlkqLYNcyjitXo/VxFz7HwX/E5nIEjEKF9bUaG0vmBxUz7BAOCiwbiEN4DGJXGVusfPzf8b0ny+D863z9m28zsvCikrSgtQsqfpPD35/5IDj3wxjnrrJ430/j+AcSy4Z/Gid3k4eau3XOdluEk8uEDkU5OJ7ae7Hxdwp2/a5BZatKt9/GAZxei+FxN1VNGt5jFpHk0upmDV8RhN6d3SZA5COTM+0Cw9Go/KxC8JhFb7cgvEmjrUolT7EJCXDvMGiqhsBrMY6dFFfS0NdjcO+TGg0tFoffS62kBOHjcTqTy06MmORvcVO/RafgbZMJAUw7BPsSS3unAa8g1OsQytacStSh82WLQLKi7/yJScG/MWj4NZXB1535w1GKSt50nHdeSKnsztv4k/9dSh44IYdgCFCgzAGmHIJ9TiKopPH9Cxc+j8OZH8Q4N5r88qTFxxMe9t6tU+uz6Rqel1gKCh2O/b9xAtPJr3pshmb+vEGjebeKeSrOLw4kgxk2/g8dWp9yUXe3St9MgyFJtRw6f2IRNBPLnjyksfExlYpbFIZOzfaGq/frFGkOZ34Y59zIbD74f2Hh9izvuNRKjZIcQeBAnM5TswWg910TUjp8M8LvxXnnveSHkMXx71vzF/oEFBUVAFHC0Uy/rHSzuTHmVCI2I6lDEUIw4hdQrFGSP/u1OZ42Jq+DGrUZHwdjncKVc1k4+E87UKpRWTrzpULRNg2v5TDQObfGjiUjjD0tcATEphN/j04LcCsYyfV9TSrqtE1fN6i6cuUfIzbBsEJhlZpcdiYdEOhN3ZfD5GUBBQqe1BGvVeQM2lcCCgAhh9EguKs08jJUVCAYfn+hyfRl5MFiGBoVteBctLh4WZmz3UiPTQSVoqqMiSXcac4GlDR5jRoFOAyecLBTtqmaNsMDArVcoyhts86gTSilbnRCDjGh4ClIWahQY1OZgnnOoid9GFEIYjPpWeJxOVGBiUJelYo3vTmYhUZG2H+eI0dPcaT90pxG1bK5PBRt2clX95XBhJ+TZ7OxUel6d53PqSRNi3lXOyUq+uTJPDM+na9Sszc5Np2bVhuMzI2gE6dsJnYZlDcpnBkRYKhU1Sk4fpOhybmrzpywjg02YM80+GxAA1UDbIWCfCBHo+3fLxARJhIBaLZOEsTTa2cBKJ9ctDcn0ifHHSJhwJcIwhPpKwjB5EJj98py8mARChS8Oqi1Lh74VuZFIrmZvhVEggtvNq9YAUWh5iseajKvjq7PTayZfjGBBQ6JAHqloBQpeBWYvpShp5dqqcflt+g+o9G83cW+RkF4xGFi2GH4tMXQYOb1lyJ09FX+/OjKtwNA0S7+0z9+nhYVmBrixf/yP3lnXmGSbkY3RlDJ1LdPr7N0lcYn3NTkCoaOmXQPCmJWYt3Nj7ioTF8+aOMf1Glu0Cl622S8VmNjDgQ+tJdW4aULWrS/apOxcRwVXHcXVM6LXgpq5kb/Ffa1RlFWKQ9i3XGOv5+5SW6nNwSSHOsaTXjhcO4Fk0CmrpeA8CcwYrPo4xKC/hdjBHwqvlqV4nKN4haNslYd38sx2ruuo+vMx0/xd98JULmpnkef3MsXv/EFuv7tcxyR9x7d9G6MoJKnkKdD+EplpuAtVACH6Ew/vUKnvFgQfD1Ke3vKurrGZg8wrzALhjocmh7W2FxjcalZw5iyuXg+fblFEoKJSaBYwRp2CK3N8PWSGevSeg6KQm4BMLWMyn+18mBCELEgz4DwQOY5l+UIBxOVsDblEJo3H7MCIUFEQN5GFRV74d7Kso5LEBu28Q/b+DFRi3Xu/G2Dsts0TndZ1889Ps4k/R9O0v9hDz1FW3jmyVraboUjx9c6YdJquzHmVDwaFVtTPueoVNwCjDmMznSp9eTBpJ3B3m0avpzMmzXP2gSiCr42g1uqIHLGYnTZFaFguMvBydGovV2dn7G6gjfjEM1iKZgxAR4FdxbnW9RynbLClM+bNXzrINZvE15yw3eV8sC0GegBtcqgpjxDNyon+WiXJQp32UygUr5bwz1vswrewkxrLcK4zcdDAqNOp7Y0bcMKuGfK41KPy5h/wjrjDpEs3f5RdNdDfOe7X+M7v7ONFRXVNKHgBOAhz7OMH0m64dwYPRUTive7ad1oEwxDcYtBWa5g6OcWV65CHrS5NKVRdp+HllyLsUnwlGtU10FsisyTw1GHi2cFvu0aRcKht+MaY+DXEGs3Ob3VTfM+N3vLLQb9DnFdIXeDyoY6FfNQlKPt195OZoIJv8CpV2l4WEftTlwqal+2CY5ee+2FOLZKwxMuctttpnSVip063phD56+WlxerlQfDb8UZLndR94Sbwk6LkUsCLUclv1SlpEah75ko564yf5LRqE3nEY1de1zc+zWbvi6biKXgLVZZX61RcCnOwR9fpaexIEHf6xabvmxQ/2UXhR/aXAoKyFXZ2KjB4SjHu5Z+XEaTi313KQTP2lwKCBxVYV2TTmUuBLLwJIK8ii3sbiuD9X6eJkPnXpIW4cYIKmMWJ45B7V0GTesSN5z5D5icTh1DnrY5+Xwc+wED326DSiAybNH9vI33UTd1GTcsGD1lE9mu4w06DKx0CEQ4+F+IMt1mULtNo65WRxWCyLjgcqeFv2dlm4+0x2kvdtHQoNPamGjZLvvmx6RoV5yuqEbDboM8QyEybNN5MI5/uTfSrVYejNscfyZG1V06VXUGTTuAqCAy5jB8xOLjZU0CC0KH4hwK6Gxt06i+W8NQIDYlCPdbdJ1YfiPDGbE4+gNB7V6d8iYdnxfMsGDigsXZ/uUdlz1gMzSkU7zVoKQl0WuJBW38r5ic/qSf57UUFsRh/jyodFNSNlc/ch2Xxpk76k3e+QcrO5c5pqsw2PekjnUoyqEj13FWZNvMHfXtMd56Qz4cRVpFjZ/nmb/chevoS3z3/zlB/2SUeHytEyWtlhtjTmUV+W7X8NoO/s5PUUCRpE9S91H+19EQubs+z9/845/yk6d/PXGpsXRTujGGv7LNUCmpV8gp1dl6q0LsdIZ7UyRJyg4nwE//4v/kjYIiKsvyMZikV3aOb1qfzqCSp9LwiEGBnXyA489WeG/KdcC73WBbk7KoYevRI3HOja16kiRpjvhEiJ4J+dTLm911PqciSZIk3UjkyKYkSZKUNTKoSJIkSVkjg4okSZKUNTKoSJIkSVkjg4okSZKUNTKoSJIkSVkjg4okSZKUNTKoSJIkSVnz6byjXlqaHI1df+Ai70SMg68v4fkaVQYPfFkn/Pr0/MfdKwr1T3moK575QhB4JcaxTE/bXcqy0iev3GDfV3SmD0Y5+kGG3+Rq5UC66cieymJ4NNq+ncO99yQeN+/7oodHfteg4Bqv3c0uhYLtOvV3arg/yd2uFgH9r8Y49nyMY+9e4zE5S1n2elKoUXOPTqUvuwXFqNKp36tTtMDL56RZRfd7eOTbLsp0oFTn3m97aNv+iZ64ULKB8FfriGz9dDz7X/ZUbhiCwiaDumKLwDGb2I3QSPebHPwvJmR8m6YgMiCIANjzXti5gmWvI/kq1bt1pict+rP4umJ3hU7dbnBOW4Sms7fdVXPVcvApULqRqS9Uol26gPfsWidm9cmeirS6Pq0ViTSXLAefGrKnkk2GStlunYoalcJ14HaDOQHBbpPuX9iEU8Ztiu73sOcOQeffxvCnPHbf95iHnVscjv91nGEL1G0uHno0tduss+fbsz/b/Dc/KngbdBp3axQXKxhCEB5yuHgoTu/ACo9PVSjZ66LxNpU8t0JkxKbnzTj+wdSFFKq+4qG5Yvab4PU8lq4olOw2qGvRKCwAooLxCxbn3rIIpL4OwaPR9k0XhR1p+V2ss/cpA/VIjHcOORnmf8C7P4dH9ic/CGfeb676NJruM/CVg1sHMyIIDzhceNtkaOahvoU6e37PoChl5Kb+X+dQP/Nh1OLQ0yYzL4p0V+ts3aFRXK7gzVNQrWQ5OGzS60/p5l45rjjtYxoNt2sUFiTertr3psmZnrQusUeh6j4XtQ0KXh3CfpvuUxkzdtHlYOZc6HrOwtOmU75ZxU3yCeKv2UykBSR3rUHzPo2SYrAnBMO/Mrlc76J5o83RvzEJXg+9eDWfyb/dxbhv9ivzqX0MPJX84Fym6F8fIzf1FdhqLpN/vYcJLrDxr8JMf7Wa6UYvtibQPr5E4V90khOA+FN3E/hMLG19jegf3cvo7aMU/1YHOSl1jXNrJZO/uZnpLR7sHNAGQuT89AwFB6dYjYFAGVQWw4ZY0IFpBRA4YQjrAie98Oap3HKHitZrM3hWMDUNnk0am9tc7NkQ5xfP24khnCVweiyOPmsBCqX7XNQU2HQdsBi3k3+fnDsY5N5ucPfDGoza9L1rE9VVylo1Gp/w4Hk2RtfA8s84o8HFjmmb/vdMLmiJ99k3P+FGeyZG75XCLRh+I0Y4B7RSnR37ru9x5JKH3LRth8h5i+5fOVCkUd1q0FaucuyZOIGlDi8J6H8lxqgBlOi03q8R+yDO6bPJfBeCcOorTHM1Wh934XMc/EdsLkfAKFRYX6uxsSQlqEzZdD7rYCjgbXLR0gz9P4szcDn5d1PMeTNqYbNBWanDpbM2F4MOtluldJtG4xMuPM/G6fLPLQdGvUHzoEX3yyYRXWXLgwZ1nzOY/H6coSsvq1eoesxDc5Ug1GHRMwK5tRotD6poCszNqiWWA0Wl7iGdoSMm770L3nqDlj0uWqeivPPWbFrVKoNdX9LxXrbpe9tmSlOpuMtFiapkHBc1ww7hoMCygTiExyAWWzgZlY//O773ZBmcf52vf/NtRq6e6oU5EXL++3FcOcDmSkJfLUX7WQcF7ydre9tEX+AV2MJTxPh3y6DdT8HfhNG0HOK712PnLiMZd9zK6LcqsYKj5L50ET2mY7VWEP63d2LmHGXDy9kfP5VBZTFMm46n7SsfA29ECWRabtLmxN9bRKZSv7QZtdzs2mFQvsHm3OgS9z3tEOxL/Nc7DXgFoV6HUKbYoKhsvUvDmLI59sM4gWhi//4zgj2/Y1C9V6Xnn22uck5dlao5nH42jn88sd1+P+z9ik7dXRp9L9lXzunYiJPYhxDX9/xHsU5Ds4LZE+fwCzP5YjN4ycW9D2s0tKoEDi/1CASRweT8jyWwAXPUvvIbplMrNUpyBIEDcTpPzf6ove+azGlGWoKJZCCIlSe+ivQ7BFNbuilCh6IcHE/Nfxt/p2DX7xpUtqp0++05v41qOXT+xCJoJpY9eUhj42MqFbcoDCXTpdYabK2G8LE4R990Euu320w94aa5en6bd2nlQBA+HqfzZGJfEyMm+Vvc1G/RKXjbZEIAKFTu1cizHDpTy+FFuPdJnUwttvB7cd55byZTLI5//5Mah7PRPxpLVLBmKQqg9Adxty9i/yX58M+/YuMLsxWJ+xf9S0+CsZ7Jf1WJGehjwx+dxT2zuZeH0P/0LkKPbSH2Rifu6NI3fTVyTiWbLDE3oCig6jDxsYOjKOSvW+X9l2gUF0DsnJUMKElBm4FBUMs0io0VbH/QYmh89qMzZPHxGBiVKoWf8AU12eCu1ihQBMFTzpxAG/vIJmhCQY266lfaOVGBiUJelYo3vYm3gmEcczytItdBjdqMj4OxTsGTno5Bm1DqkEnIISYUPAWz3xVWq7iFQ+C0k7JtwdCcz8skINCbesAOk5cFFCh4Zjo5HpVSn4JzMa0cDloMXyYrwv7zHDl6iiPtl+b0/D5R0RB5r05de7lrad7EdAm43h3EFdcQxsw/C8/JSZR164jesvLdpJM9laxSyNum03CHRvEGBWNO7grU1c7tPAW3AuGx9NpIMD0J6AqePGCZL9+LXRZzL+cVgsgkUKGQo0HoBpuMdRcCAiLjafllOUTCQG4iP1f1Sju/RfcZjebtLvY1CsIjDhPDDsOnLYYGr736gvJVavYabK5VyMtNi/gj81uTZjQtCFmJ0SRVTwz5AriTAWZyPG3dcZGFy7wF8fQutCDRMJv5nJsIMNH0/QnB1ASwYcWJIHT0Vf786Mq3syLBMFoWRqUcXw42YH15D4NfzrSEhShc+X7SyaCSRd7bDPZ8VsXss+l+xSE8kThR1SqDO/fegE156dpW+rMKQf+LMQI+FV+tSnG5RnGLRlmrju/lGO1dy4houkrjE25qcgVDx0y6BwUxK5HYzY+4qLy+p7kWNpPX18NE/CpSbJHFCXSbnH8+QV53pr6kjdabtR1dIYNK1ij4mjWMcYtjL5hzWu3e8vktQ1skzgxtzh8U3DkrKE5hQUyAd/1s63Jmuzn5gCWIrqBP716nYMBsK1FR8OYDU4Jpe+H1rknMpHURtcVSlr2G2DiggLdQgcGU7ekq3jxgRMz2UizAnmm5p0j2ZlbWUhfEhm38wzZ+TNRinTt/26DsNo3TXdbS58AqdMqLBcHXo7SnXm2la2z2AMscWYkkJ5bzC5kzK28UJsrFqgsLojZsKJxfDnMLrrLezcZKBAgxJ9N17MK5rQV1eBqN9TjONO7OJXR9VA+lZQW4MBkbCjG1xLFNOaeSTTMhOrWCNVSqW+Znc+wyoKis25TyZZFGWdlCG1cwYwI8Cu6FWpoBm+AEuOt0SlIHzYs1KsrBGXKSE7HLVK5TltJdVst0Nq2HWL9D+gjSkoQFMaHg3bCIgLqUZa8h1mczIRSKt82dO3Hfmph7muhNmWuxBdPTYGxUyLuypEJx41WecGCCI8DIucppZsw/CZ1xh8hVgrQZFaCQGMrMRE9uM60y8G7T8K3gLvxwj0NMUSlpUlPSrFA25/MqijqMDAvUKm1eOSzJ0nxl0V0P8Z3vfo3v/M42lnGxVWYRC8UBsT47M3T6SAxFzcOsS+kT+DYxvSVtwc6PyQlC7MEaYvnzt+P4cjLPhW1s44/+7j/wvb/7Co8uWB9dJX1LX0XKTBA4K2jYq7HjS9B31sF0qZTeplOQoVUd67EJmiplD7qxi20uC4Wy7SruiCBzaU5c/ePUqzQ8rKN2Jy6TtC/bBGeuKBMOZ39pU/awxo6vuOjrmL2kuAhB76HlX/kF4NgqDU+4yG23mdJVynbq5MUcOo/MXkmk5isUFScqfK1UQQWMDRrF1Yk8cCYdQulXLAUdPh4R1Le6aY2aXAqDHXO4dCbDWP1Slr2WoEV3p07bdoM9X1Lp63FgnUZ1q4YxbnOiPeWUE4KhHkHVbTo7v6hw0S8wKnTKSwWxhQYrgjahsE7l7QaN0xajE4BwGPfPDEeB0eRi310KwbM2lwICR1VY16RTmQuBBX6v2IBDWOiU7TOYeM9hOg5EHUYHkvMigzaXpjTK7vPQkmsxNgmeco3qOohNsexehdNncrZPo/kOF7tcFgPJS4orS5V5ldOyysE1CfoP2dzyhE7Tb7rwfGAT0VQqdmoYS71WfwF5FVvY3VYG6/08zbI7dXNdDOIO3cLk/bcyPjaIe8xEwUL/4DLaMhp5avsIbnM9U0+1olYG0Mghdvd6nBBQlLKgOUb+/+gn9h8qGf3rXHLfCWCM2Tgb87AaNzC9bpTi3/sI97wfT0uWEYv4MkYgtMJ1W/906atJmcQHbMYVlfVbNCoadUpKFaZOmZzoVqhqUJjqthiaCQAxh7HLCgWbNXxbVdbnQ+Bdi0GPxqb1gqFf2YTTfmxz2GEyR2PDFo2qFp3yJo0SzaH3/GzQskccRsYgt1yj7FadTZtVCDqcOxDj7HJvfjRUKn9NQz8d5+SQSnWbTmW1BkGb7pfi+C/NLpqzw83ezxlUNuuU36KiAe4yjcpmncpmnU2GQ8+5+RcSjPkFbp+Gb7tO2VaNTSUw1O5kqFSXsuy1TZ23ueyoFNboVDRqbNigMHXBovNlk0DaUOH0gIO1XmNDrcamahV1zKLzkKB4u4bSb9OXdu8HjmBsCLwVGpu26Wxu1ihvVImcsBmPJ5exIGe9yrpqnfJ6jU01Gjkxh8F343R0iMyDfFOCsbBCUbVOZYtGRZNGeTl8PJMHlmDEL/Bs0vDdqlG2RcPr2Jw9YBGr0SnGoa/dIQ6gq5T/moZnxJ5TjvCqVN0+/7jGz9vEcjU21mtUbEkE39NHHYrqVaxei4GPE8stpRzk1OhsLofA+yn5AuTdqlOWdi6IcYePhxXyqjUqt2lsKFYIHTEZ9OqU5jhcfN9hJVfIFm67k0e358NYDy/9rC87QcWZxnXBxtlazPQ95Uzt3URkdy7GG4O4UkelFBfxz2wmxmVyXx9DW6j3H57AFXBh3VrM9M71mEUW7udO480rZ7osgvfFEYxkfikDo+R0RGFTEbFdpUTaijE3uWF0jNzX+vH0xuc1iVy338VX7yrB/OAgf/PToSXnp7K5+pGbfNpLkqSbm0LNb3todJu887S1dpcC3yRavvEn/KcHpnnxD/8r/6N76evLORVJkm5s+SqlJYlhwSyNgn16qWW0NOQz9d5bPLuMgAKypyJJ0o0kV6PtKzrWRzbDIwLHo1B2h05ZnqDzBzH8y7wHS8oeOVH/KVSyz0Vt6SIWtAUXDpgM3wiPVwe82w22NSks5jaM0SNxzvlXPUlStsUFoyOwudnAt4vEgzIv2nS8bNEvA8p1QfZUJEmSpKyRcyqSJElS1sigIkmSJGWNDCqSJElS1sigIkmSJGWNDCqSJElS1sigIkmSJGWNDCqSJElS1sigIkmSJGWNvKNeuvF4VGo+66K2VsFtAMKh6+9j9I5fc82F6Ro7/72LkvNxfvZje/6j3Le5eOjRlHv1QxaHvmcy8Wm6ddij0fZNF4UdMQ6+tuK30q8yhZqve2jULQ49bTKRpa1moxx4d3vYt1dw7pkYZ0aylLDriAwqi5E8mbxHo7zzrsD3RQ87S+xPX6WyFIUaNbcpmGds+oezmUkKxfe5aKyHwJE4A6MAgstZeUb5wpwLJkeft9BQKN3noupGfSXvglR8ezTyQzbnuq73gLF2VrUcbHGx/9dVhp+L0uFXaf6Gm7ILcV4/sJLXqi6Smk/D/bv5zD31tFStp6jQA+MBek+e4Nkfvc37Swh+MqhIqyNfpXq3zvSkRf9wFrerwIZKBYZMOlb40rE5LJvjfz2Nas97YWLClCDYIwCFnN0s8CK1G5iuULZLx9fj0NO1QB5IN285KNzGV79xH7eGhug4eYLDIcjbXMue+/bzH28r57/9bz/ijUUGFhlUpBuMgssDXBbZr/gsWaRgOkIAABClSURBVJlKn1LTgxz4y//On/9yKOXFZAYHHv89/urJbTzxhc288b2Li9qUDCpZpDa6+MznVQJvmkSqdSqrVDRLMN5r0fWGRSj1ab9FGnW/plFSqZJXoGAoELtsM/y+SffJ2Vfjulvd3L9fZfjHUdq75w4jqbUu7v8Njdi7UQ4dERQ96GFPo4P/IwXfdgVGbToPOpR91oVvHYRPxXnvtdTWvULeNp2GOzSKNygYQhAecrjwbhz/YMqOroylx2kf02i4XaOwQGCPOfS9aXKmJ5kuRaH+KQ91xbOrevfn8Mj+5Afh0Pm3MfyTS8/bovs97GlLeUddrYv9fzy73dQ5FXe1ztYdGsXlCt48JfEk2yGHi4dNetPezlhwj5u9u2evV3G6M8+pLMkWF/u/pBJ8KcrxrtmvjVY3+/cr+P85SmfqE5JzNXZ9w0XeiRiHz6s07NXZuEFBE4KI3+L4CykvnspVqbnXYHOtQp4XzDAEO026DttErKUnteRhD23bU/K1wcVDM/mKYDjtGBIUCrYZNN2lU7QuQzm4QqXuKTf1mBx6UVCxz6C8CtyKQixoc/qFOEMzZWEJx6X6NJruM/CVg1sHMyIIDzhceNtkKMOTio1ynZb7dXylClpMEHgvTsd7ztzXTysKJbsN6lo0CguAqGD8gsW5tywCyyivV9JarNHwoE5lhYJmQei0Sc9KXk25WqIXOfLL9C9Neo6eof/LZdRWlpDLxUW9CVMGlcWwIRZ0YFoBBE4YwrrAyThVoOC7xyD0gcmxtwRs0Gh40GDX4/DLH1hX5mDUSo26epXRcza9Jx2itsK6ep3Kz7op8MY5fCRRrcU+sgjsc7GxWcXotlNOBIUNjRpuy+FsZ0pCclSKdIuz76ls3aOz83GH4aNxutfrNLTo1J6w6RpOrF+018WuPQrRPpvetxziusrGFo3mJzy4fhTjXNpciFFv0Dxo0f2ySURX2fKgQd3nDCa/H2doChDQ/0qMUQMo0Wm9XyP2QZzTZ5PbEYLwMl/LN94e52gPoKnUPmpQMm5x/O1kfghBOKW0FzYblJU6XDprczHoYLtVSrdpND7hwvNsnK6UwBI+GeeoXwFNo+GLOoXLS15WqGUGbfUKEx+YdBwCchXK6hMNDgSQr7Hzqy58hmCow+LCGLg2aVTvcrFnfZxDP176cGDoV3GOngY0la1fNCgaNDl+xGFmFD+WYcjDqNLZWSkY/tBkRFepuF2j7nPMloN5K2g0/6YCPRanDwgsBYoaNTxuYHKJx5Wr0fq4C5/j4D9iczkCRqHC+lqNjSUZgkquSvPnFSa6Lc6dUVjfouHb58IcjdGREgRLHnLTth0i5y26f+VAkUZ1q0FbucqxZ+IElvP6h1yN237LRZkmGHrPIhhVKG5xsSMXyPSiaFMQHhNEE4WaaMghfLVJW9c2/vCHT3JvbpR3/uwv+Mtjy3jh/bUU5bNehdClMIvdugwqi2HadDw9O1kWeCNK4CqLOwMmx99KngijDu0uhfsfNth6q3Wl1eecM3mzSxBLaYX1tztEv+6mvlWj+KhDUADTDgPnwFen4cu16Z85aQ2VzVvA8VuzrT0Ay+HCmxb9MZWCbRpVpk33YZtwocKmJp08HzAMbNBo3q1inorziwMzwcrG/6FD61Mu6u5W6XvBnlOQVMuh8ycWQTOx7MlDGhsfU6m4RWHolAAEkUGRePueJbABc9Qm2LfUDM+QpyGHYAhQoMwBphyCfU7Ggh46FOXgeOrwmI2/U7Drdw0qW1W6/bM9EWdcEBwXoCvZm59ZJqMU+n8Yo2twtiIZ/nD2775/4cLncTjzgxjnRpNfnrT4eMLD3rt1an0zDYbFM4MOwSCJ4xfAtGC0z7lqT03NEXSnBJDBCRf3fza1HKQpVOCtOIffm91qoHv2fFrKcamVGiU5gsCBOJ0p++p912Tey9YBchRCP43ScT653HnB3qcMfA3KbFAp1mloVjB74hx+YSaA2QxecnHvwxoNrSqBw0vvuxbcqVOWKxh6MUr7mcR3/s7E+VWWaQW/yeHvz3wQnPthjHNL3ms25fPg57ZR5AR48WAP8UWuJe9TWQXjPc6cCirW4xASUHRLSnZPzw0o6KBqgvERAXkK3ivhXhDosIgZKhUNs2eNUa9R7IHAqbkVPxbEYoCAaBSYEom0RAQmCoY7sY28Ro0CHAZPONi6gjrzz7QZHhCo5RpFaSepM2gTStmZE3KICQVPwfLyabWY42nzLTqoUZvxcTDWKXjWKmHXMmjTM7hAy9TQqKgF56LFxcspv5euEOmxiaBSVJWpVs0+Z8BmOKVHEvtYELlaOTAdLnQsUCkv8bicaKIc51WpKedIUqasm3IY6En5POYwHgGjQMFIfuWu1ihQBMFTaeftRzZBEwpqVNwLHNrCFDZUqYlGYer+px0GLix5Y5lZY5w/doojvzxF11j2eymVX3icp9o0+l9+iX/qWvz2ZU8l6wSx9C5rLBFAinMTBdkE0BV8uw1qGzUK14GaWh8IBVWfWRAcv81gSKemScP7gUUE8DWqGFM2F9ObMjbJoQuBneg8zCQLB9D0xFhKXrECikLNVzzUZD4M9JQ0AJjRtMo6ObGt6jPjM9eJfJWavcnx+dy0inbk+m1JmWPOwr2lgkRDQ6118cC3Mi8S+YSuRDLD6eVAXL0cTAjCCx3YUo/Lb9F9RqN5u4t9jYLwiMPEsMPwaYuhwQwrR8W83qzjAIpypRy4CxPJjoynpd1yiISBXAW3QqInt1iKQm4uMOGkzQkJImNZOlecIV78qx/xYna2NkfRPY/zZ79TS/iXz/Hdf1h8LwVkUFkd6vyTSwVS33Pre9jNzlsh1GFy8ucO08nJu4JdbpprmVvzCYeLXQ41u3XKiy3OxXUqqhQiH1qMXqsBcbVL3IXDuRdMAplOeAHhVRiiXXW6SuMTbmpyBUPHTLoHZ3qECpsfcVG5hveXXCuYOYuYaI91xzn+fuZKyV7BhPKqEgvNP85a9HEJQf+LMQI+FV+tSnG5RnGLRlmrju/lGO1dadtIbVhJi1LU9uv85z+4DVf7S3z7v55kZIkjfzKoZJ2CtygtqOQnWmPmRLLVZGhUbFUwz8Q5+trcK41yFjgDwp02od0G5dsUBqc1ijWH3o6rj31fTTiY2I825RDK5n0ka61Cp7xYEHw9Snt7yve6xmYPLOrylWtJBuoF49PMxRhpLXcjbwXDUxOCiAV5BoQHMs8l3ZCWdVyC2LCNf9jGj4larHPnbxuU3aZxusta8txYbBxQwFuoQOrwo67izQNGROZeytXKgRBMTQGFiWG68JUGg4J3/XXWs0+Re9tD/Nkf7mR996t8+/84Sv9SuihJ1+tIwA2toFGjICVc5zXqFCgQvJAMAVoy49MigrpB55bqBSqekM3ARUFek0HjNhWCNhdXEAzCXTYTqJTv1nDP26WCd6WXQZngCDByPuEipmfOW+82DV9OdnYRmwLyFHIWmpwZd5gWCnmbZodY0BXK61cQVEybgR5QqwxqyjNsJyf5yJrlsgVmHNQcWMlmlmypx2XMr7SccYfICm46j/XZTAiF4m1z507ct2oUGzDRm3lY8urlQDDa60COSkV1ytc5KhW3LD+tc6ib+eK3vsZ//JPHeWTLyjeXu/0h/vN39uLrfZ3//c8O0bOMgAKyp7IqzFydO38Derod2KBT3argjJicPZtcIOowMgAltxrsiipc/FigFmlUtaiok8C6TFsVDJ1yaHpYw1cIobdslnl1bsKoTecRjV17XNz7NZu+LpuIpeAtVllfrVFwKc7BldyvEbQJhXUqbzdonLYYnQCEw7g/7QKFbBu0uTSlUXafh5Zci7FJ8JRrVNclKoE5FaahUFSerPi1ZIWSo7ChWk00Qk1BaDD9JktBsNsm1qjR9AUD4yMHx4GI3yY48+yxoM1I0KBuh4s7hcXQZVhXr1OkrKx1OvxWnOFyF3VPuCnstBi5JNByVPJLVUpqFPqeiXIuuMyNC4fgAFRtNWjZCxeHEnE5+rHNxCo/Amcpx2U0udh3l0LwrM2lgMBRFdY16VTmQmC5T1gIWnR36rRtN9jzJZW+HgfWaVS3ahjjNifaM50F1y4HE8cthlpclD3qgQ8sLk3BxhaDjdlqZ+kFbNnZwB25UaYOGvx0Jf3X4p384Z/spVYN8X6Pi7bf2E9b6t9D5zlwoIcMtwHNT9byUyEt5NI7MSZrXNTu03EjmDhj8t4bFhNXKlOB/ycxtAcNqpsNWnYIzDGH/p/HGa100bYj83bNj2yG79co0x0G0seOl0wQOhTnUEBna5tG9d1a4gbMKUG436LrxPKH1gCwHLp+YqI9oFN5v4sanRXd/Lho0zYnn49jP2Dg221QCUSGLbqft/E+6qYuddlinR2P63hTG8hVBm1Vyf8Hkw8jTMtq80yc42+5aL5To7laBwSBA07i0mQAITj3chzPQwblrQZFEUHggzjtUYO9D66gtzJuc/yZGFV36VTVGTTtAKKCyJjD8BGLj1f41MShg3HyNYPNbQY7kzfHDL9kZ7j5McuWcFz2gM3QkE7xVoOSlkSvJRa08b9icvrD5Z8TgVdjHLtsUNei01ALxATjPSan3rIWvEflmuVgyubk/xfHfFCn7E4DnyUIdcU5cd6gbfeyk7o6iooTPXm1iDsevY870v/uh8Ov9BBaRKWgbK5+5Poc3LsBJe6o1xh+cfrKdelZZWi0/r4L31CcN5/P4nOvJEmSskTOqdxA3M2JeYHAKRlQJEm6PsnhrxtAQb1G4TqVzbs11KBFz9lrryNJkrQWZFC53ikqFfe7qCkQxIZsOl6xCK3mRPcnoVSn9R4V9yLuGYn1mLQfkyO0i+XdbrCtSVn4cucUo0finPNfezlJWgo5pyJJkiRljZxTkSRJkrJGBhVJkiQpa2RQkSRJkrJGBhVJkiQpa2RQkSRJkrJGBhVJkiQpa2RQkSRJkrJGBhVJkiQpa9bkjnrXPU/y/Le2wdQk/R+d4Nm/f5UjI2uREkmSJCmbtMJ1W//0k96pHRrmo84eOgI5tD14B/dsGOXVXw7fPG+zkyRJ+pRam+GviQAdx0/xznNv8Hof5NaWUSkH4iRJkm54a1yVTxMOAx7vnNd4SpIkSTem66Z/4FrrBEiSJEkrtsZBRc6iSJIk3UzWOKjYhKMm5OSRK7sqkiRJN7w176l89OFF4p5a/uWT26gsMnBdNwNykiRJ0lKt/Uu61Hzu/cZTfPOBElxA/Ohz/MZfnCS+pomSJEmSlmPNXydc9MC/5PcfKCJ09HX+8eBFhocGZUCRJEm6Qa1xUDFoubOW3HgPT/+3t3lnam1TI0mSJK3MGs9gaOR5DJgKE5pe25RIkiRJK7fGQcVY291LkiRJWbXm11q5dMBBzqNIkiTdBNZsTsXl8VBUs5M7qoD+IMPOWqVEkiRJypY1ffS9C2AqwE//13Hkk+8lSZJufGtzn0pBCQ0VHsypSYb7Q0zJXookSdJNYW2GvyYCdHetyZ4lSZKkVbTmE/WSJEnSzUMGFUmSJClrZFCRJEmSskYGFUmSJClrZFCRJEmSskYGFUmSJClrZFCRJEmSskYGFUmSJClrZFCRJEmSskYGFUmSJClrZFCRJEmSskYGFUmSJClrZFCRJEmSskYGFUmSJClrZFCRJEmSskYGFUmSJClrZFCRJEmSsub/B/T0yRoYVSF5AAAAAElFTkSuQmCC;" vertex="1" parent="1">
          <mxGeometry x="20" y="110" width="405" height="132" as="geometry" />
        </mxCell>
        <mxCell id="r7BZuEesni4fPCG0NWLC-3" value="retries every 5 days &lt;br&gt;(2 lần retries - payment-failure-threshold)&lt;br&gt;-&amp;gt; 3 lần" style="rounded=0;whiteSpace=wrap;html=1;" vertex="1" parent="1">
          <mxGeometry x="310" y="280" width="240" height="60" as="geometry" />
        </mxCell>
        <mxCell id="r7BZuEesni4fPCG0NWLC-4" value="&amp;gt; 3 =&amp;gt; status subscrioption =&amp;nbsp;suspended" style="rounded=0;whiteSpace=wrap;html=1;" vertex="1" parent="1">
          <mxGeometry x="610" y="280" width="170" height="60" as="geometry" />
        </mxCell>
        <mxCell id="r7BZuEesni4fPCG0NWLC-5" value="số tiến chưa charge sẽ cộng dồn vào next-billing-cycle&lt;br&gt;status = suspend -&amp;gt;&amp;nbsp;The subscription is suspended." style="whiteSpace=wrap;html=1;" vertex="1" parent="1">
          <mxGeometry x="20" y="360" width="330" height="60" as="geometry" />
        </mxCell>
        <mxCell id="r7BZuEesni4fPCG0NWLC-6" value="Cancle -&amp;gt; check lại xem có số tài khoản chưa thanh toán là bao nhiêu để thu hồi&lt;br&gt;Recover outstanding balance" style="whiteSpace=wrap;html=1;" vertex="1" parent="1">
          <mxGeometry x="30" y="480" width="350" height="60" as="geometry" />
        </mxCell>
        <mxCell id="r7BZuEesni4fPCG0NWLC-7" value="" style="shape=image;verticalLabelPosition=bottom;labelBackgroundColor=default;verticalAlign=top;aspect=fixed;imageAspect=0;image=data:image/png,iVBORw0KGgoAAAANSUhEUgAAAmAAAACyCAYAAADlAnPdAAAABHNCSVQICAgIfAhkiAAAABl0RVh0U29mdHdhcmUAZ25vbWUtc2NyZWVuc2hvdO8Dvz4AAABAaVRYdENyZWF0aW9uIFRpbWUAAAAAAFRo4bupIHPDoXUsIDEyIFRow6FuZyAxIE7Eg20gMjAyNCAxMDoxNzowOSArMDd155tIAAAgAElEQVR4nOy9f1BT177//b5PmSGdMLPt7IxhkmeECXeMYyyx8AgW5pjbcCqn4RorXOFAqxamYgutHtBqoR4V2lFBby1ga8FzEeRbvcHRNulICXf0Ic7UEr7HPsR57BDnVkOnfif5PnWazOhkZ0zn8/yxE7ITAgkW7Y+zX2NmJGuvtT6/1srae31W8k9ERBAREREREREREXls/B+/tAAiIiIiIiIiIv9oiAswEREREREREZHHjLgAExERERERERF5zIgLMBERERERERGRx4y4ABMRERERERERecyICzARERERERERkceMuAATEREREREREXnMiAswEREREREREZHHzCNagPlg2ZqFtDQZSj52PZouFoKgA60FMhQedgIAnB8UQZbVCFvwF5ZrPsTo8Mviw2CVDMqtFnC/tCiPGN/X/Wg05EIpl0GmLkTVe1Z45hE33Kc1UCprYLkPIGhFfYZwrHBwfFyF3AwZij7g/eq70o6ybCWU5f3wLbQyvwOixm7QivosGUr+5pm9QtCO5mwZio67HpeI07iOF0GmeZzzjA/95TLINg0+fOzMiFEREZGfy6NZgN214j+HfGAYwD44iF/D0iA+HP+P45cLi1Q6GA1apD+i3nznqiALf+guGNE6PFaCDrTmRS/+/BwQ+CVkeZzc6cfrG+thelCMg6c+wUfV6bh+9CVUHU8+0gMch0CQCy1U06Fda0S+6im+8K4JbftHsGhTLz7apAbgQv+77Rj75x04896LYB6BSsnwaOJ3YYgeuwH4OYDj/HPU4MD9BIALPBb5hAQ4vt/HN0pSkZlnhDE3A6nJVpnqRIl8BRqvhN+IidHHSZx5JhG2N7MgM/ZgjiW4iMgvTsqjaNRjMWEEOuxrSkXbATNM13djX/aj6GlhkRv3odf4CDvgAkAQv6OnQxy4X2rx9wviONWJERjx0f84iHI5AMNK4EYBGkascP5FDfV8G0zRovZkb+TvO1OY+ikduhIj1CyA4BRc3wHLtq6HbukvtfzCrzp+o8bub+kJ9mNBAt2uXujmUyUAcD/5EQjbMjZGHyvzn2e4IAcEOcy1BBcR+aV5BE/AXDCdswGFRlRsLMbqJxwwD9pjruHgONuMsoIsyGQyKLOLUH/cLng8nqgc8FzpRH14CygrF2W7+uEI35mHH5f/pRll2UoUHeXvnLibg2guzUWWXAZlTgkaz07CK5T8eBFk2c2wByNtlB3oQaMxF0qZDMrsEjQPCe+pPLB9UIMijRIymRK5pc0Y/LgGSnkZ+u/GWOWDImS9bgV334IauQxVZ0PaTFnRXl2EFRkyyJQrUFjVCsut2SeaRDok12YC+961obO6CCuUMsjkWSjc1A5b7K1k0Ir6rCJ03uLgPFqItJxW3m4A8JMLprdLkJshgywjF2WHbVG+833ViXrDCijlMijVhajaa4ErLN54M3LlRah/uwq5WblovhKSd6ARZXm8vFl5ZWgccMy+ELjvRP+uEuRmySBTZiHX2IjBWwK548TGnDJF4YLNNoVU/RYY5eH35Cgf+BZ3hrbPsvgSxIkybE/Bk5fQllnZKQ9wqxNF+nY4OBc6n5eh5KPP0JpXgp47HOwHciHbNMjrfSfkYyXv46LqdtjuzK1jMnVmi/dZ4zfiVQxWKbHizX5Y3itDYZYMsowVKHq9B3bhWOCcGNxbhUK1EjK5Eiv0NWi/LAiuuWJvjrKosRvGO47OraHr1YWoOjz3NnHyMQBwX/fw18pC889eC1xBAHCh0yDDil22aP9myFA2ILSZH1OfNqMsj7dDrrER/dd9SbQPJBq/rg+KIMurQfPWQmRl1cDCxaQGfN2KXHkJ2i09qH+e1zeroAqtFhdfPt6M3Lxm2DkP+o1pUL5pjY7REMnMwXPPnwKCHljfq0KhWgaZjI+LznHf7PPMrGOc324tG/CBu9KMFbIidN4CHAdyIVvTDue0DfnrlFutc/cfZq6xAw7Oc80oCc1PypwSNA44f5U3KiK/MmihcbaRnmWp9LSbiNzUt4El6dNNNOqPXHL7ZCkpGBUZ3umj4UvD1PeOgVSMggwnJpMq99tbqGAxSzkvt5HJOkrmkw2kXyIlxYY+uk1E9MBM1QopSZdWUodtkm57iegHM1UvlxK7qpraBodpeLCDqp9VEMtKKWf/BBERTR7RE7u0gUYfCNpYYqCWi5Pkdo1R90YVSZdUk/kHXo/JY3piGRUZ9nST2WqmvndKSbNYSlK2lPrcMXa556aJIwZiWQN1XLtNbj8ReYep4RmWFM/WUceFYRq+0EHVz7IkXV5N5tj6lJwOybQ5t339NPyaithnqqnPNkFj1m6qfoYl1atm8kYJ4yfvtyaqW86SZoeZJr/3EpGX9zeroIJX2sh0wUQdL2uIZTTUYOMDwH+tjfQKFel3dpPZNkqjZ1rIsJQlzRvDfPtXm0jDSEnxQgsNO26T1x+Sd0kB1XWZafTqKJmPVJKGVVHlmXhG8tPoTg2xy0upzTxGYzYTNf1RQey67lljI6FMQh4MU52KpYJ3+qjjVT2pFkuJXZJDhp0mmvTPEIaIiCaOhOOkLxQnBtIsZkm6uJJM98IysWQ4cZuI/OS+2EA5rIbqBifJfY/I6+qjahVLBXuG6fYPfiLvKDU8w5JmQwv1WUdp1NpHDX9UEPtsC435Z4n/ZOvMFu/x4jeKsO9DfVwcjozLsO3JTaaXVSRdoqeGk2YatZqorVJDLJtDTTZ/gtibOy7jjV12sYr0O7rJbB2mvv2lpGFYKnhnjPxERA9GqWE5S/ojk8nFZVQMjFHTMyypNnbQsH2CRk83UMFiBZWedBPRJLU9x5Jqx6jgejNVL2bJcJKP18kjemIZlhTPVFLbGX6M1v1BQVJVJfV9n6j9xPPj5BE9sVKWCnaaacLpJn/IN+zLJl73q02kYVhiVfyYGr5ooraXc4hlc6jhkpfogZduX2qiAlZB1acn6fYPsTE6jzl4jvlTiPt0KSkWF1DD4BhN2IepbaOK2KebaNQfb56Ze4z73ZPUXakg9rkWGnW6yU9EY3s0xK5qoYkH0z1S9zqW2FfM5J+z/yTGjrOD9IsVZNhvprFrY2R6x0AKtoDabsSfD0REwiz4Amzi3QKSLo4sQNwnDPwH8KXQjO0fpYblUlK9JpzYvDR6pJpKd5rInaicvGR6WUHSVU188Idwny4lBaOhpqs0Pfg174xNl9/uMhAbOyicbaRPsADT7Im0wU9cKmq4JNDjFeHCxE+jOzTxF2BE5D1dSmz4Q5eIbp8wEMvqqcMplKmD9CxLBaEPBiHJ6JCwzYT2DU1Mf2yLLCjckzR2g5/IongwRk1Ps5HFX/hD+JkmGgtPdD+YqHKxlArenSAiL5lfUZCi0hT1oeY9U0mKcMxcbSINo6C6i8J4YcnQdVtQw0/Db6iIfa6DZlrJTcNHGqjtYsQBfnM1KaIWO8LYSEImIX4zVS6WErtYQ6WHzDRqHyXzoVLSMFLK2TM600b+YapbKo1ZwHrJ/JpqlgUYETlaqIANxTIRv1hYGlksuE8aiF1eR8P3BP1820F6NmS3OPGfdJ3Z4p1mxm80Id8/3UCjgnL3mcrIuHS0UAGrCN2che0zRk2rpMRu6EsQe3PHZbyxq3jZRIIo4MemopJMXopZgM0zBu6ZqXqxlHL2jE372+ucoAmXn5JfgBVQyzVBm65uMoTHyVztJxy/ofbZUur7IVIebwE2HW9ERP4Jank27AcKzRkqqrsk0GE6RucxB88RT0ImDhUQu6SU+lxhG7tpwj5J3gcUZ55JMMaJaPg1BbEvdFBYw0QLsLn6Tzh2bA2kYjRUZw57xEu3r03wNz4iInOwsFuQQTtMFxyQ5OqwOo0Dd58Ds6YY2hQXzOds/CPZ7+xweCTI1+sEycQMdLt6cf5oOeSJyoOTmHD4IC8oRr4k0rV8TTFWprhhv+YKvSOBPD28R8TB6ZgAt0QH3VKBvKpi6FSCRmYgQUamPPKnIh0ZKT547wH4Xw44PBKsXCOUU4J8fV7SSdLOaxPgVDroVEKZdNCpODi/dsScWEpOh4RtJrIv5Fi/yYj0/6cVhZpclGxtRY8DWLZcjrksJUSiWQltOLuQycAypQS+e14gOImxaz74LDVQpqUhLfRSbrXAF3DBORWqk5IOeXqot+8ccHg42N5eMX19Whq/FcJ96xRsy4SRo3jXQZSn2dB5oBE1VSUoOWCF7ycfvNN7tYLYSFYmoX4AUoveQu/bRujydDC+3Yt9BgbOc4MzT7Z958Dk3dg4YbBWn5+0PWOZuDYBbqofZfKIvGnZzbBzAUzecs/UcR51Zo33JGHy/wX50sjfcn0xVqe44XC44HM44MRKFK8R9CHJR3GBHJxjHBPBuWJvvnEpwWq9DnLB3/n6PDD3r2Pim5hL5xsDUh22VGsxdbwIWTklqHm7EzYuE9qMWTwab9tziQ7FwrzYDB10Ggmc1yfgm6v9hOM3LGM60ueaiFLU0OkzBebSQleQCc4xjslEOXTzmIOTjSdt6RboJFbU52WhsLwerRcmwWSrwcTNUk5mjM+PufpPOHbyKrBt1Y/o35yFFfoqNB61wqPUIvMXTNcU+W2woEn43FUTLLcA7mYzcuXN0YVDJoz4ivHIctzjaCJJRrt5WeBhPzLjwSEwW//z9cr09QvTpnxjL/6etw2WT80YvmxGS3knOit78eUJ40OcwJPE9C1BZvVH+GRrdLaUJIVB+lIA/zO2DgeAgfGDIezJi2lZko6MWL2CTvRvLsNOuxzGTRXQ/bkY6d/1o+6AL+qDUDIfmYSkMEiXSZCuWhb1Aahemg6M/AjffSCukRZspHEIBAFJznZ8crwi+sRuigSMMhPA9ZD8868TzcPEe8w5O6HewTjvxZTNFXtzlcUlJUb+lCfnkHseMQAGusOXcKN8BGaLFdahNlR93AFj1yWc2RSy2k+CDKDAj/D9NEfXAIBUSJ5Iov38RO2EBU9N4L2ZpUnNl3ORsP4cEi2txflxHWwWM8wjVgzuKkHnie04/18HoYs9upnkGJ8bP6IOyc7a/77EY0eSid1ffIP1I5/BNGKF9WQderq6cfDzS9j+Gzh8JvLLsaBPwGznzHAxxThouYRL/xV5XTxQDMbHfzUFluRDy3K4/qVdkKTIwfG3RtQftsKTqDxlGdTLJPCN2+AQDDbf1VFMBNOhzY73JRISqLXLIPnODvt3grfv2GH/9iFTJRVqLGM4TFy1RR0esF8eT/K7diTI1iyD5Fs77HcEb9+xw/4toM5Wx3yOJ6NDEm0msi9csB5vh+XuMpT/5SB6LdcwtEsNt8WKsXiT23wm7ZRlUC8D3DdckCzXQpvNvzKDTlivOPFjvLaWaLGMCcD5316os8N11JC47LBOemdO6ddN6Bz6EWsPX0DvgVpsMRZjNYvZfTJfmVJWYmVOKtw3JwVt+uC86Qbk6ZBLY65fog3FyViUve1fXn/IJF3ex/jWCTcbkVcr5zBxeQyeuI0+TJ2Hw3fNBoegPd+X45gIpkO9PBOMRo2M4ARGrwq8EXTANu6BRKvFypS5Ym+ecQkOE1eix6bj6hh80mysXB5z6XxjwGNDz1ETJpVG1B74EOfHv8T7a3wY+dwGHxZBkgb4pqYiX4HwTZwntf/LDtut6DZt33DIyF4JZq72E47fJAlOwv6l4OqgE/ZxNyQaLZYlGtMPNQfPjfPTTnReBvI37cb7A5fw97O1SL9pgfVGuE/BxfMd4wAkaQxwx4Wp8CGB+044BQeTZu8/8djhvh5E+9/GkLp2C/Z9cAZfXv0IRjhgvvzr/QImkV8HC/oEzDTkQebG7aiN3V55ZjsqTltx+tPP4Kncgm0NOpj21uOl9H2oLWDgu9KD1g/GkPHedsglmXOXg0HFG7XoLO1E3euLsGeTFqlTVnS+ZwHWvI9tBfHvsjI37oCxqwptrzaCebsCyzAJ05E22H8CMh5GWUkxardqYTrcgColh+1rGPiu9qDtnBuY5SxcahqD1IADNosDug1aZFbugPFkFVqqG4Fd66GGE+ajLbAtMqJ3k/ahdEjYpgQJ7PskfFc7UHdiAq5D26Bb5IHZ5gKWVyBzRrQswqI0wP21FbabmdFbo3EJ+64dVVuBPZvywdyxovNAD6YMn2DLbHZ+XQvT4Xq8lLYPtWvk8F3tROvRCWR3rcf2GSItQnqqD87LVjgKdGDuDONI1wgA7Sxf+TRfmRgYt25BW2krag48iVq9HL4rnWgdCiB/7zboYm0UjpOjO1GTEcC2Qga+L7vRcs4N4OFuj8M+bq6sR2BXOdQpTgweboEpuA0XX124OrHExq883lC71YO6rYuwf6sOjMeGzgMmcKv2YVsBgJRabNP3o3FvFVq57dApA3CcbUHnTTU2H6iAHNwcsfckHEnHJY/P0oyaDA7bi+TwXetHy8kpqKvfh5FBzJOSecZAGgfHqXq0XZnCoV3FkN+1weoEMiqXgYEc+TkZ4D7oRNPxDGxZ6ob5iAlTKYj5fkEHOl6tx6K3y6GVuGA+2gprSjE+3KQF0qyzty/JTzB+MfNUdHzrwPpeFRqxGxVZgONcK9q+TkfFmQp+G5ORQAIfJkcscGiM0LLx7DW/OXguUu9Y0fpuPyY8B7FNK8Hkp3a4pdlQZwAz5pkkxrhE+hS4b8cwcsWIzWsyoc5bCeaoCW17+5G6MR1TZ1vx2b3k+s/MmHvsSO5MwrS3G9b/Poh9ZcvAXfsM1+8z0C3PAO5a0FzdDclfzmOffiF3UER+FyxkQplisX7Wkx+TR/TELg4nhnpporeBDKtUxLIsKZ7WU3XXWFRS6dzlRG5rG1U/pyEFyxKryqHSHX00Eb4gdFKttDc6e9bv6KOGdTl8naV6qu4yU9s6BRUcCp2+7NIT+3QogTxeG9/3UeliBdVdDPfjpuFDlVSwlCWWVVDOhiYyHaskdnE1meMlKnvHqG2dhhSshhpsIZmcZmqpLCCNgiVWoaKCyiYyOWc5TpeEDsm1mcC+7lFqe0VPGgVL0sUqytnQROZv48tz+0wdFahYYtd18wckKllSvGqOJKM/mKS2P7CUI0wIj/XdO+ZIYvW1FspZHHuCyEtjXXVkeEbBy/uMgRp6J2YmvPPa0+TpOjI8w+umeraS2i50UKUih096niU25pQpTh+3LzRR6bMC+x0bpXhnMnkbuGk0Jk7MpxtIowjFSaxMN9qoYHFOJEk7lISsFxxE8DvN1FRZQKqwj19uo+Hvw9fPEv/zrRMb73HiN0Io0XtjG3W/oQ/Fnob0r3bQqPDU270J6ttZSjkq3haa56qp7WJErzljb46ymWNXQdUnzNRSmUOqxfyJv8r9ZrodTsKOY9P5xID3WjfV/VFDClZK7BINGd7oo4nwmPeOUVslP0YVTxuo4XQfNTzNTh8+uN2lJ/YPTWTqrSP9cgVvhz/WUbfdm1z7CcZvlC1C10eNy6tNpGELqKGrhSpXqYhlWFKtKqWmwUnBmHLT8B49aRaz/NwSJz7mPQfHxpOQB7dpeH8pFSxlScrw47bFGqkbPc8kGONE5Hd0U+UqBbHhMUZuGn7HwMflkhwq3W+m7lcVpHh1OHQqdu7+5xw75KfJMw28PAxLiuUCf3zfR6WLWao8I2bki8zkn4iIfulF4G8THxyfmjDBrsWWNZmh9zjY3v6/UDZeiy8vz/adUCIiv0d86C/Nwk5pL74fMC5otqTIAvNVM1ass6H88pe/iS/IFhH5vfJIvgn/H4NU4EY/dnb1Y7xlD8q1DL/NccqPtUcrxMWXyD8o4tdPioiIiCSDuAB7aCTQvn0Bn6Q0oLXrdZg8ATCqfKw/fAH7N8kTVxcR+Z3xpARIlYjPvn71pEqQ+sQCnHoUERH5WYhbkCIiIiIiIiIij5lH8FuQIiIiIiIiIiIicyEuwEREREREREREHjPiAkxERERERERE5DEjLsBERERERERERB4z4gJMREREREREROQxIy7AREREREREREQeM+ICTERERERERETkMSMuwEREREREREREHjPiAkxERERERERE5DHzD7AA88GyNQtpaTKUfOyaUeo8XAhZWhrSQi9ZxgoUvd4Duy90wX0LapSR8rRFMmQVlKHVEm7Lgx6jLKpcqS5E2a5+OO9H98XdsqL99RIUqpWQyWTIyilCzYFBOMJ9BW1o1qQha6sFPsTiw+AmJWTPd8IleC+hbppG2ILzNFmytrnSiBWLBLYJvzLqYQ0KbCcvQvv16LY9p8ogU9bAwsXpa5EMSk0uSqqb0f+VJ7rilUaskBWi/ZvoejNsFrSjOVuGoqPOqOrcLSs634z4QJldhKq3+2G/m9gevnNVUfaIvEL9fN2KXHlEtl+UoBX1WTKU/M2T+NqF7DMjfiwmi/ODIsiyHj5m58aH/nIZZJsG44yv3ylBB1oLZCg87IxT6MNglQzKaov4C54iv2ysLPTcGW7veuJLf0l+/wuwu1b855APDAPYBwcRG1ocxwFsMXYPnMGZgV4c3KSG90Ijql4fBP/RxYELAurqD3HmzBn0du3GnyRjaK95Ca3jHAA/uCAgyavFhyd78WHXQexYK8HE3+ph+EtkUeD7qhUlz5Wh/RoD3ZvH0HvyI+wpzYDzVA2Knq+H5Q6AlHzo9HJ4Rj6DLWbxBp8Vn10OQF1UjMz56MYFHnrAJLRNMAA/5DAe6EXvKcGrqxarUyK2w307Og6H7cnjD3BAkIvqi2N02H3qDHpP/Dv2V64GrvWg/oUClP1NoFkwAD/AtxuuB8BzrgUd40JNOXCBkA7hd8bbUfJcGdrsDHQNB9F78iMc3LwMnk93ouT5elgSrFWYgh0hHT/E9mclwNJyHDzZi95TH2GfMQMIcAj8FJHtlyUAPwdwnP8x9pkO7Voj8lVPJV3D9mYWZMae6dhYpNLBaNAi/ZHIl4rMPCOMuRlIfSTtLyy+c1X8TUrsXDAvOP4fF38W8HNAIMAh8DN6WBg55yY2Tn4rbf+2ePSxEmZGzCz03BngEPiJ+5XMxbPzu/85Vo/FhBHosK8pFW0HzDBd34192TEXSTKgW2eELgXAhnJoU3JRdLwf5jvlqF0EABKka3QwGjMBGFFuyMSP2TXoP2PHvrwMvg3lalRUlkMCAJs2YxmnQdXQZ7BxRhhhQ1t9OxwZu3Hx833IZ0L9bijH5tKVKHuhGQ1v65A/UA7dC3+CfGAYVhsHoyHyw8a+y8OwBdTYYVTPT7efy1y2AYCURVimL0d5zuxNqHO0cA+1oeMrIw4+O/uPNUskmcjfYERxCgBsQW1DLdo3GtD6TiM69RexXTVLPbkWaqkD3YdN2HZhC+L+FDpnR+trrbwPvtiHfGm4oBxbSvNQ9nw9mg8ZsfaDYswqoTIfxo35ADhIhnaiBythrCyPLIi/mt0G/xCkaFF7sndeVbggvxAPLxPlxn3oNS68aDwS6Hb1Qveoml9ouAAQxK//6dRjkDM2Tn4rbYvMwm8lth8xv/MnYC6YztmAQiMqNhZj9RMOmAftCWtpNWpIgm64Z7slYtRYpgR8/9szy1aGBAzzJBDkwP0E+L7oR/8tOSr27o4svsJXLt+OfZvU8HzRDdMtQKIz4k+sB8Nf2ATB6YNtyIrA8vVYv/zn6fZzSWibGUiQWbUHW1RO9Bw6Ldg+TQKpFrvf2wZ1wA7ThXiPxcNd5GPH9mLg8hG0XY4/pH1fdEd8II0pVG3BJ5e/xCd1q2dffM0D73gnatZkQSaTYcXz9Ri8KZCJc8KytwqFahlkciVyDfXo+WqWDbGgB9b3QtfKlFihr0HneOha3yCq5ErUWARtjzcjV16EzptRwqBzaxFWKGWQqQtRddgKz/RdIQfnuWaU5PGyKnNK0DjgjMQd54LlvSoUapR8/2uq0D4Sdjy/nZdV1YjG51dAWdoPT2jbs+yUB/yWhRIr3uyH5b0yFGbJIlvYdyP1ywZ84K40Y4WsCJ23ANfxIsiym2EPy8g5Mbi3it8ylvM2aL8cCT7XB0WQ5dSj82gNitQyyORZKKzugSPu05jQNsrW0DbKXPaNV3u8B43GXGTJZZBl5aLkL/3T/bg+KIIsrwbNWwuRlRXeWufgGGhEWci+WXllaBxwROx734n+XSXIzZJBpsxCrrERg7ci7WW9bgV334IauQxVZ3m5fF91ot6wAko5n+pQtdcClzC8bg6iuZSXUZlTgsazk/DOqlGIoBu2w1W8j5QrULS1M7IlnyDOZpNTaPP+chmUm9rR82YoDjNyUXbYFjV3eq50ot6QC2XItmW7wraNHyfTTPWgRCZDyXGXQB8n2tfIeLkA4I4V7dWhvpUrUFTdDtudJNpOwk/8Vr8SVR9b0VldyNtdU4Sao7bIOPu6FbnyErRbelD/PO+7rIIqtFpc07EQN37min1PP8rks+j9Fxv/96x68yxorIS2L5VR2/scbG+vgCxHMJ4xd8ws2NwZbu9GPxpD4yUrrwzN5yLzm+NALmRr2uGcli0Uq1utyekzpzxx5sc48v2+F2A3B2EeB3Tr/gS5/E8wFkrgtJhhS7DsnpryACnpSGdnuSAwBdddgGHlmF5PBfzw3fXB53HBYWlF+6cuMIXF0EmBSfs4fKn50OXH/3jP1+sgDzowdo0DpDoU6+XwXLbCHpbzvo3ffjSux/Tzr4fU7ecSzzac18PrftcHn8+HGU+wU/Ox4y0jUq904sjQPLNvsnXQyTk4HY4575bklfuwbbkbpw/1CAZUhHg+4Hy+abkDaZnIVDIzK86XoBOnj1mRvvkQeo/UQn6zH3W7wgtPDyyvl6FmCFh/4DzOnzuBbRkTaP63quhFUwjP2TrUdE0h/72LuDTUi80yG1pfbeN9HPQj8FMAnHA/gIt97M7B0dUEs7QCB099gn+vTMf1wy+h9ICdt+XNHtS90Q8YjuHiyEUcMwCmhhp0fhOS9c1/Rc1JD/IbTuCT08dQnn4d7ZtK0fp1yBNBwDNkgxtxS+gAACAASURBVHfzf+ByVwXk4W3PAP8swc8F4Dq7E81fa1Hb9Ql6/7oWGGpEaXUPXGBQ0fUl3jcykOTtxsWrZ1CrAgIcgAAX8rUHg1sNqBnwIP+tEzg/cAyb08fRXm5A8xX+ikAQwM1+9Dh1OPjFDXx5aj3weTPquhxx3ePngEAoQOe0bwzc1+0oXdeMkbQKHBr4BL1v6cB9Wo/S1/it9UAQwDcW2Jg9uPDFIayVAK6/vQTDXjvSNx/D+c/P41h5KkYaSlFz1gOAg21/GXZ+IUHFsYu4ePYQiv0m1P2lBy4AmVvP4NIBHSQSHQ5e+TuObWB4Gf6tA5PLt+PEufM4c6AYvnM1+Ne3rPyHxF0L6jbUoOd7LbYd/wS9TcXwnmjG6e/mnhS4y61ovpqJ2mOfoLdlLXC5GaV/7uTHUYI4iyfnDIKA7/NuWLP24fz433F+azrGDtejJeRDbrwVpRtbMcZW4NjAefQ26eA9Vw/Dpv5Z42SajLUofgawD41Ebu5ummH+hoHuBR0kPhsa172E0z4d3jp1HudPvQXt9x0o29gKO5egbV66Of3Eb/X7MLK/DmZ2C44N9OLgxkUYf68MpYdDc1aAQyBgR3tDP7D+IHpPfYRtWU501pSh+TI/H86MnwSxL9ehOBewmy0z9P6TIR+YU+9HECvQonhtBnyXP4N1OqfZDvOQG+lr1yNfsNc2a8ws4NzJtzeF03t74F27j7e52oWerWXYGfoM4vgcFcHnCocABwSCAXApifRJQp4Z82Mc6HfMxLsFJF1cSn1u/m/3CQOxjIYaLvkj1+zPIVZVR2a3l7zu2zRxsY1Kl0qJ/WMHTRIR3TNR5WKW9EcmyPuDl9zfjlHfGwXEMhqqu+gnotvU8QJLUqk08mIUlFPZQsPf830Mv6YgqaqOhh/MIqijhQoYlgwneUH95mpSMRpqsPHF/ot1pGILqO3Gw+k2a7+J7JfINpfqSMVIo3WXSknx6jDfQMh2hpNuogcT1PYHltg/tNHkA6LbJwzELq4ksz+BrA8mqGWVlNgNfeQO98kWUItDUG95A40+IPJeqCYVo6LqC16iB6PUsJSlgncniCjkgyWC9r19VMrGyP50E40lZSs/mV9hif1jB90Wvn21iTSMgkpPu6ffGtufQ9LFlWS6R0Q32qhgcQ61XBPqN0Ytq1jSvDM20/6HCohdUkp9rtAb99w0YZ8k7wMi+qGPSlmWKgcj/iZbA2nCcfLATNUKKSleNlFEGj+N7tCQVFFJJi9/vYrRUJ3ZGzYK3b42Qbe9xMckG60L+Seo+7VSquudJCIv9W1giX0uFAsU7pMlw4nb0+XSpxto9F6kCfeZSlIwGmq6yv89/JqC2Bcidpw8oid2Ke/P+DKMUZMgHiaP6IkVjAMiNy/Xum6B3mFCMr9sIn8i+8bUM72iIOmqJhoTmNt9sYkqN7bQsDckB1tKfT+E5RylhuUsGbpuC9rx0/AbqpDN3DR8pIHaLgq8Y64mRThWiMh7upTY6b+9ZH5FQYpKE3kFLXrPVJIipP/tLgOxMfMEOdtIz0opZ//EDGtM+2h5tI+8g5WkYFT8XJIozmbIGb8P9rm2SJzcM1P1kvDY9JLp5Ti2PV06Z5wIud1liIoBPobqaPgekfukgdjl/P+n+baD9KwiNH/P3TYl8lNonKleEfrFT8NvaEi6pJrM9yg0L4THRfiSCWp5NiaOhfGTROzfPmEgljVQdyh+J4+Fxo4/sd6PJFautVAOq6Dq8KR+tYk0bA612OO0FhszCzx3xrX5g5DNX+im20Q0tkdD7KoWmpge727qXscS+4qZ/ERz65NQnjjzYxx+9U/ABgYGkJmZiczMTAwMDCRfMWiH6YIDklwdVqdx4O5zYNYUQ5vigvmcLeppCufpR1WWEsqsFSgsb8UYuwX//mFt5GkTONgPFEKZoURWdhHqz7qRv+tDHBTkaEnW7MZ5yxnsflYCLN2Cj3r3oVjJly1ingLu/QjfbEmqP3jhBsAwfHuSohehY1wYGbID4GD7Yhg+4fbjPHT7uSS2TSbKP7iIi0OR14WmOFk2KVpse7sC6de70XJuPumuXnjvA2CeQqLnU8y6PdixygfLkQ44YjJFFzFPAZzAB8yLOPh5RObeV7ULsv2IlHRoNZF7nWVqNSQ/BeC/B/iu2eG870T7GuGp2iK0f8PBfWtqxna2tnQLdBIr6vOyUFhej9YLk2Cy1WCSztyUYLVeJ7jzkiBfnwfm/nVMfAMgrwLbVv2I/s1ZWKGvQuNRKzxKLTIZwOdwwImVKF4juG+TaFF74jw+rI54H+npcybMM/n/ErXlK9cXY3WKGw6HK6H08WXIR3GBHJxjHBPhJ31pGcicfiIrR7qSAbzehNspSds3OImJaz7IC4ohfIgtNxzEmcF9KA4HpjQd6eH/f+eAw8NvWQhPy5ad8oD71glXUI7iXQdRnmZD54FG1FSVoOSAFb6ffPDGEzw4ibFrPvgsNVAKTuAqt1rgC7jgnOLgdEyAW6KDbqmgnqoYOtXckc0URPuI0RdjdYoPjutTCSw4D5SZyAj/PzUDmXLAd4/jbeuIY9s1xViZ4ob9mith05nr1iMfNlhGfABcsA45kP5COXRSYOLaBLipfpTJBWMuuxl2LoDJW+4kBE/GTxKsXKMTzE8S6J7PA+NzYCKcOZGihk6fGWlWooWuIBOcYxyT4TgWxE8ysZ+5bj3yn7DD/F8eXu+LDqSvW498SSK9px5NrGSvx/qlAdhC6TP2i1a4l67H+jnyg6NYwLmTb08N3ZpMwd9aFK/JBOdwxN0lmcEc+iQtT4L58VefhP/Xv/4VP/zww/T/N23alFQ97qoJllsAd7MZufLm6MIhE0Z8xTCGgl3CFmPfqe3QpkiwKD0T6qXymA9jCbSvfYSDRjkkkkWQq/kPqSjYZdDpjdAFKzBY3o/2sztwvpoPpmW52WA+tsP2JYdyw8wAt1+2wZOixUptqFHpWry4lsHgiBn2Ji8sIz5ot0a2H+ej288loW1SUpGZo4MuiUHGGN7C9jWfoflYB/68OUkBbtnh8Ej43LNE16aoUdu0GT2l3WgdXIYMQXTP9AED9bO6kE19sJxygVuQ9GxJ1KhKFY6wIACJDvs+P4hiaXQdCZsxc4G5tBbnx3WwWcwwj1gxuKsEnSe24/x/HYxIGgzwfQIAF8CPsW2kxFgt5UlBt/nY/cU3WD/yGUwjVlhP1qGnqxsHP7+ELdPXJ1D3CSQ4URhTOp8ZJzxJxqsjnEBjyiVPJNn+XPaNzRNMBkmqIEY5AAyMHwxhT17MZZJ0ZMCJ/qoy7LTLYdxUAd2fi5H+XT/qDviidYuuiczqj/DJVnX0uykM0pcCY7NVS2jzJM6EJoqzh4KLtBnLfOIkYz3W5zejZcQKX6Eb5hvpMB7QQQIOgSAgydmOT45XRH8QpkjAKDMTtx10on9zEn6KHWczmFkuidVRGD/JxL6S17t5aBie5wOwXk+HsTUZvTPgjL9D//NiJUWL9UY1OgessN9Ph21kCuryCmjnccO4YHNnnPZ4GVOBWY9b+BF1aHwOfXwJ5Qk9AUgwP/7qn4A9HBxs58xwMcU4aLmES/8VeV08UAzGx399wzSSDGjX6KBbkw/tjMUXz6J/zoNujQ75eXEWXwIka99C7aoArF2RXBLGsA0VSzwwHW6NfIdWWNJvOtE64ASzdjO2TN+NSLB2XTGY76wwn7TAdleL4unTj/PU7eeShG2SJxObm7Yg41YP2gbdiZ/UBV0YPHQa9ifysb5UnehqXlz9Hry1FrAe7YD9XuR9xrANFUoPTEfbYY/9frbxDrQtpM1mgdGokYFJTP5/mdBma/nXcgbucSscnpmHu52fdqLzMpC/aTfeH7iEv5+tRfpNC6w3AEieROoTHKamXJHrv5nkc0mm4TBxxRaVROq4OgafNBsrlwPc14No/9sYUtduwb4PzuDLqx/BCAfMl51gtFqoMYHRqwK7BJ0Y3FuP5k9dSBbfNRscAkf7vhzHRDAd6uWZCesyGjUygrEyOGAb90Ci1WLlz7x9nNO+QlKWYaWWgW/cBofAvr4rnWh8s3NGPAEAlmixjAnA+d9eqMO+zlZD4rLDOumF5LoJnUM/Yu3hC+g9UIstxmKsZjH795OlLIN6GeC+4YJkuXY6fjKDTlivOPFjigRq7TJIvrPD/p2g3h077N/OPdJifcTZxzERZKDNzkgyzn4GKcugXiaZaduro5gIpkObncwXksixfoMOgSvDMF2wwqE0Yn0BAEiQrVkGfOuEm43YTCvnMHF5DJ5ktgqS8lO8ceaAj9FiZVboreAk7F8KnvwHnbCPuyHRaLEsThwnF/u83rBb0X/WDLvSiPWrktH7EcUKAK1xPdSeEZgHzLBOaVGR5LydiPnOnQCAoCPa5nDCbp+CRLsa6hRAksYAd1yYCo/f+044b0XrP5s+DyVPHH71T8Deffdd/PWvf53+f1L4RmAa8iBz43bU6vOjFw3PbEfFaStOf/oZPJVbZmvhZ5CJLQ0V6Kk6jfa+7dC9lglIddh/fDccle0oed6F7TUvYqUC+PGbYfScGISTLUfvkeivT5AUvYhiZhA9R6aA7N1YH16czVM3jnPB/qkFgWlPpyJjTTG0sx0wmC9BLyYvD8IyJZDkCTnyDflxkw4lz+7AnhdMqPnUCUijByfHuWD/3IJAkIP7zgTGLpgweB0oPvp+nOTY2ZBjy9vb0LO2HQ4O0Ibfluqwv2s77JXtKH1+EttqXsTKxYD7+jD6T1rBKeWQhL9b7Eo7yo66se3k+zDGzZx8SPJqsX1NP+obqpB+dzuKMwJwDLSgdSQd+/7v7TMuT71jReu7/ZjwHMQ2rQSTn9rhlmZDnQFAmofV2RJYTrWiXb0d+UEb2k86gJRom/oszajJ4LC9SA7ftX60nJyCuvp9GBlAgkmY9nbD+t8Hsa9sGbhrn+H6fQa65RlA9jbseKEfNW9XoZnbjmJlSNYhCXaXpgPJfhvQrR7UbV2E/Vt1YDw2dB4wgVu1D9sK+GKJ9Clw345h5IoRm4XbBSF7bdP3o3FvFVq57dApA3CcbUHnTTU2H+CTWhOe2pqDOe0bBQPjm9vQsa4TNa8vwv5KLVLvWNF5oBOTa3qxRxpHDkkxal/XwnS4Hi+l7UPtGjl8VzvRenQC2V3rsX3RIqSn+uC8bIWjQAfmzjCOdI0A0E4nvKemMUgNOGCzOKDboEXFG7XoLG1H1VZgz6Z8MHes6DzQgynDJ9gCgNm4A8auKrS92gjm7QoswyRMR9pg/wmYoZKQO/0zfOTL2Y1tayRASuI4i5VTPq+7NCakVyfqXl+EPZu0SJ2yovM9C7DmfWwrCKVlxMRJbBdygxG6t5vR0hVAxtaD00nfmZU7YDxZhebKegR2lUOd4sTg4RaYgttw8VUkbjsJPwGA51PBOLP3o+XUFLRbP8La6Zt1H6zvVaERu1GRBTjOtaLt63RUnJkljpOI/YjeO9FxDMh4PXm9Mx9FrADA8vVYn92OjkPdCOTuh3GWeXtGzMzVZ8ge85k7w9gOV6E5ZTfWZwCOC61o+5/pMJ6uQCYALm8lmKMmtO3tR+rGdEydbcVn92IamE2fhPLMvJVyHK9Cs6MY75/cEknhmSM/7DcLnySpj04wFDCduPsD0eShAmKXN/FJv/G4xycWl/bOTOnl4RP3FK+GEvf4HvjE/Jikbr/TTG2vGihnqYJYliXV03qqfKePJn6I02woYVcqZUl/LJLGN2/dpLFJ8oKkwgQktI2tgTRxkvCnDweEbXfaG13vRgfpF0tJqqieTsKPlZVVaUhf2UTdNvfMPgXJo5OHCoidkTzvpeHXNCSVslRwJDoF0nvDRC2v6ClHxRLLKkjzh1JqOj1Bk72lpHiGb8dvriYFa6AOF83K8GsKYtd1RyfuXmuhnMXRia28vwTJtd4J6ttZGun/j9XUcTXGPmEe3Kbh/aVUsJQlKcOS6tlKarEKkoEd3VT9BxUfS8/VUfeZFtIv1lObk4geDFOdSkHVJ8zUUplDqsUssaoCqtxvptvTtvLT5JkGMjyjIpZhSbFcT9VdY5FkYv8kmd6ppIKlvKyqP1RS23T/XjJVxsT9g2GqU4XHSigJdWMbdb+hJ42CJVahIf2rHTQqiHe/o5sqVymIVfAJy7e79NH+vBdjr+eqqe1ixOozriei0Z2amQck4smcwL6xuK92UN0LOaRYzBK7JIcMO/po4t7schB5aayrjgzP8ONd8YyBGnonQvby0+TpOt72LN9324UOqlQIEnu9Y9S2TkMKNnIgx21to+rnNKRgWWJVOVT6jpkmBcPZ7+ijhnU5fPlSPVV3maltnYIKDsVLBfaSqVJBmh19ZNpjoJwlIR+90kajwtzvueJsFjlntTkR0YNJavsDSzmC5OkZeu3oownBsIiNkzjeob6NLEmZghlzo99ppqbKAlIpWGIVKip4uW36gFTithP4KXzw5J1uapq2ewFVvjscGWdXm0jDFlBDVwtVruLHmmpVKTUNTk7bJG78JIj9sN6mSgVJYxPqk9J74WOFKHQYQBo5VBaX2JhZ6LnzWgvlKAzUdqFjOnYVzxio4cyk4HPaTcPvGPi5aUkOle43U/erClK8OkzCT8hZ9ZlTnplxP7ozNumf6J+IiBItPkVERETmhw/9pVnYKe3F9wPGhTngICIyKxysb2rw0o0d+PLydizMxlcSBC2oyaiBp+UGLr46y3Ocr5qxYp0N5Ze/XPgvyv4V4jtbheW7Ajj49XlsWcgdhF+IR6nP7zQHTCQR3FA9spQyyOQxL+UKNF7+paUT+f3wj/5d1yKPhfsjMA35kF9qfHyLLyFB8Xv0eTz47JwN0FXgxd/B4utR6/OrzwETeTRI1h7E1fG34I9Npk15Eum/i4Ej8kvzpARIlYjPvkQePdylz2DldDi4IfMx95yKJyWAJPXJOS6RIPWJOKcef494hmH5UoLik8UJvzboN8Ej1kfcghQRERERERERecyIW5AiIiIiIiIiIo8ZcQEmIiIiIiIiIvKYERdgIiIiIiIiIiKPGXEBJiIiIiIiIiLymBEXYCIiIiIiIiIijxlxASYiIiIiIiIi8pgRF2AiIiIiIiIiIo8ZcQEmIiIiIiIiIvKYERdgIiIiIiIiIiKPmX+ABZgPlq1ZSEuToeRj14xS5+FCyNLSkBZ6yTJWoOj1Hth9oQvuW1CjjJSnLZIhq6AMrZZwWx70GGVR5Up1Icp29cN5P7ov7pYV7a+XoFCthEwmQ1ZOEWoODMIR7itoQ7MmDVlbLfAhFh8GNykhe74TrjhyT8tfNQhfbPkiGZSaXJRUN6P/K09ikwUdaM2b2XZaWhrSlDWwcIDreBFk2c2wx/6U0UPiOl4EmaYRtgVqb8EJWlGfJUPZqSTsJ5I03Kc1UCprYLmf+Npflw98GKySQVlteXy/dhm0oj4j/jyWNOPNyJXlovXrBZNKRETkIfn9/zrVXSv+c8gHhgHsg4NwvrY76sdaOY4D2GLs/mALVoKD+5oJ3ScbUeVbhKtnyiEHBy4IqKs/xP7nnwLnm4TtVAfaa14Chi5hX54fXBCQ5NXi37euBoJeeMZN6P5bPQy+p/D1SSMYAL6vWlH653Y45EbUvnkMe5SA+8Yw+k/WoGjIht5PP4RRmQ+dXo5Oy2ew3TfCKBUI6rPis8sBqN8sRiYAB8eBY3TYfnQLVgq8KPk/dWAAuELluz/YhmXBH+H9dhzmwR7Uv2CC5egQzr86x0/WpqhR8V4vlvkATH2G1vdGkPHGR9iiBZCqRr4E8HIAAtyCffgEOABc4Ff8080B+DmAC4g/uruQBDgOgeAsP9k91YmSvB6oz/2/eH8N8GvzgZ8DAuAQAPB4fvEyHdq1RshVTyVdw3euCll/kaD3Zi8/n8hWQrcOWMY+OilFRESS43e/APNYTBiBDvuaUtF2wAzT9d3Ylx1zkSQDunVG6FIAbCiHNiUXRcf7Yb5TjtpFACBBukYHozETgBHlhkz8mF2D/jN27MvL4NtQrkZFZTk/EW/ajGWcBlVDn8HGGWGEDW317XBk7MbFz/chP/yrnhvKsbl0JcpeaEbD2zrkD5RD98KfIB8YhtXGwWiITOu+y8OwBdTYYYwsnCSSTOg2lqN4Fi9KJJnI32AMlW9BbUMt2jca0PpOIzr1F7FdNZvVJFCvLecXqt+40HHYhsw15ShfG7nCm9DyIiI/kwDA/eRH4Nf6VPRxk6JF7cne+dXhAoBwgasqx/unyhdaMhERkYfgd74F6YLpnA0oNKJiYzFWP+GAedCesJZWo4Yk6IZ7tp0ORo1lSsD3vz1xtgoBQAKGeRIIcuB+Anxf9KP/lhwVe3dHFl/hK5dvx75Nani+6IbpFiDRGfEn1oPhL2yCpwI+2IasCCxfj/XLk9U9DlItdr+3DeqAHaYLzp/RUBgvHH31KNIoIZNnobC6Bw7hVtIdK9qri7BCKYNMuQJF1e2w3ZmrPT+mPm1GWZ4SMrkSucZG9F8PW9iFToMMK3bZIpeHtmTKBnzAVA9KZDKUHHcJyp1oXyND1utW3pZzyRPe3vlLM8qylSg6Oot93Da0luciSy6DMrsEzUOCILnvRP+uEuRmySBTZiHX2IjBW+FCDs5zzSjJy4JMJoMypwSNA85Znvj5YP+4HiXZvB2yCsrQOt2PD4NVSqx4sx+W98pQmCWLbJvfFeiSpUTVx1Z0VhfysmqKUHPUBk9QcE0cfT1XOlFvyIVSLoMsKxdlu/pDPuVtqQxtcYd1sr29ArK8VjiCADgnLHurUKiW8f4z1KPnK+EI8cD2QQ0fL8osFG5qh80TiG/n8Wbk5jXDznnQb0yD8k1rcj4AB8dAI8pCds7KK0PjgGMWO8/hE98gquRK1FgENcebkSsvQudNQRNBN2yHq3g/KFegaGtnxA+JfM65YHmvCoUaJWQyJVasqUL7SMTP/eUyZFU1ovH5FVCW9sMTswXrOl4EWUEzBs82oySHH4O5xkb0f8P34PqgiI/9+xbUyGWoOusDvm5FrrwQ7d+EZXBicG8VnxYhV2KFvgbtlwX2DOncfLwVVQW8Hiuer8fgzV/vs2oRkd8Kv+8F2M1BmMcB3bo/QS7/E4yFEjgtZtgSzB1TUx4gJR3psz2mD0zBdRdgWDmm11MBP3x3ffB5XHBYWtH+qQtMYTF0UmDSPg5faj50+fE3KvL1OsiDDoxd4wCpDsV6OTyXrbCH5bxv47cfjeujtk8R9CNw18f3e9cHn8+XeAsvWwednIPTMduH0jzwWNBxBlh/4AQ+enMl3J82o+6Ygy/z2dC47iWc9unw1qnzOH/qLWi/70DZxtaIXrHctaDlkAv5Db345OM9WO01oX7D6+i/AwABcBzgj3oaEt6S4oCMtSh+BrAPjcAVLr5phvkbBroXdJAklCcAf5CD7QsXdMcv4z+2xtui5WA/0QnH8u049vFBvJhmR+frTRi8y5fZ9pdh5xcSVBy7iItnD6HYb0LdX3p4eW72oO6NfsBwDBdHLuKYATA11KDzm5m9+M41oGrvGOR1vbj4+Rnsy3Wj880mWEJrGT8XgOvsTjR/rUVt1yfo/etaYKgRpdWhvhCAn/NhZH8dzOwWHBvoxcGNizD+XhlKD4f9PlNfbrwVpRtbMcZW4NjAefQ26eA9Vw/Dpn64oEbx2gz4bJ/BOr3Qc8A65EbG2mJoUzywvF6GmiFg/YHzOH/uBLZlTKD536qmFyyOo1UoO2CDZN1B9J46htoMG5oP2eLHYc4enL+wHVoJg/IT1/DlgeIkfAC4/vYSDHvtSN98DOc/P49j5akYaShFzdk4d1Nz+SToR+CnADjh+pDjEPiJT0mYfutyK5qvZqL22CfobVkLXG5G6Z874Qwm8rkHljf/FTUnPchvOIFPTh9Defp1tG8qRevXIYsEAc+QDd7N/4HLXRWQx2zBBji+j4YjLuje6sUnx3dg9Q8m1G+ow6AHyNx6BpcO6CCR6HDwyt9xbAMDBDgEfkJIBw8GtxpQM+BB/lsncH7gGDanj6O93IDmKyEZfgICATt6znjx4vFLuHH5I+R5+lG363RknImIiDwc9Dtm4t0Cki4upT43/7f7hIFYRkMNl/yRa/bnEKuqI7PbS173bZq42EalS6XE/rGDJomI7pmocjFL+iMT5P3BS+5vx6jvjQJiGQ3VXfQT0W3qeIElqVQaeTEKyqlsoeHv+T6GX1OQVFVHww9mEdTRQgUMS4aTvKB+czWpGA012Phi/8U6UrEF1HZDoNv+nOg+pVKSSlkqPe2N0mtGnw8mqGWVlNgNfeROxog32qiAVVCdNfrtySN6Ylk9dXwbfuc2dfyRJfaFbrpNRO6TBmKX19HwPUGlbztIzypCdovTHlNALdcEb7q6ybBYSgXvThDRJLU9x5Jqx6hAFzNVL47Y7XaXgViBvyeP6IldysuQUJ4HZqpWSEnzzlh8O4TKVa8NU1h6v7WOVIyKGi4REblp+EgDtV2MWNVvribF4koy3SMiWwOpGA3Vmb2hUi/dvjZBt700g9sXWqiha5Smi9x9VLo43I+X+jawJH26gUYFurjPVJKC0VDTVYGsr5gibZCfht/QkHRJNZnvURx9vWR6WUHSVU00JnCP+3RppF1HCxWwCqocDLVqb6IcNof32Y02KlicE+2/B2PUsorl+/APU91SKaleNQtk8pL5NRVJwzaKxdlBelZFdZeS9IF/lBqWs2Toui1oxE/Db6iIfS40noXM5ZMf+qiUZaly0B91vWZ6HIb8sDzaD97BSlIwKn6Omav9kC1LTwtGoX+Cul8rpbreyen2o+R+YKZqBUuGE7x+02PGIdDp2w4yLGap4Ahfy3u6lFihfa82kYYN1Ykrwxg1CeeHq02kYRRUbY7YYfJIQXSbIiIiD8Wv/gnYwMAAMjMzkZmZiYGBgeQrBu0wXXBAkqvD5ERTowAAIABJREFU6jQO3H0OzJpiaFNcMJ+LvuvmPP2oylJCmbUCheWtGGO34N8/rBU8beJgP1AIZYYSWdlFqD/rRv6uD3FQkKMlWbMb5y1nsPtZCbB0Cz7q3YdiJV+2iHkKuPcjfLOd9PrBCzcAhuHbkxS9CB3jwsiQHQAH2xfD8MXZfpQwxdh34SIuDkVeBw3MjOaj8cJ7HwDzFBJdmRBmGbRLwn9kQv3PqcA9LwIAJq5NgJvqR5lccIIyuxl2LoDJW+747S3RoViYn5ehg04jgfP6RPyt3pjcoMx165EPGywjPgAuWIccSH+hHDppsvJIIE+Xz6GwBMu06umEa8k/q5GZ4oP3HgDIUbzrIMrTbOg80IiaqhKUHLDC95MPXi+AvApsW/Uj+jdnYYW+Co1HrfAotciM44TMDfuwX8/hsw+a0bi1DCWVRzAW8MHti0Qtk/8vyBcc0pDri7E6xQ2HwzUt68o1OoGPJdA9nwfG58CEM/LetL7BSUw4fJAXFEP4oFa+phgrU9ywX3MBy9dj/dIAbEM2+AA4hqyYWlqBimzAd80O530n2tcITwwXof0bDu5bU/B958Dk3ViZGKzV588zgX0OH3zngMPDb4tGTu7yW3bct064YnPJ5uGT2WAKov3A/P/svX9MVNe68P95UxJ2g8lwMvN1CNyUCdw4RqzjwVvxQA7zHuhhbvF0rHDFCz3Kga9ihRaLPytVK2hQqFcFbT3geVE06jsYa5lG6nCi1zHRMr7HfhlzbRhzq8PN8YbJqymTaNgTx6zvH8OP4YeArbU9nvVJtpG91nrWs5619uxn1vPsPRkWFkT4cd/omVC+3+3Gw1ws6WHrTTFRcugMnxSF7b7GxBAzkQKvmLGEfy4kWDAbmdIO9/g6pGBJ1aO6r9E1aK+IGAz/MDxLMXHx8DhA/4NJOpBIJBPys0/C37p1K/fu3Rv6/7Jly6bUTr1qw34b1FuVzNNXjixst9Hht2Ad+KBVtBa2HSnHFKEQHWPAOEM/6qagYHrnU2qsehQlGr1xnA9p7UzMGVbMwaW05rVQd2oNZ4pCH2wz581B80cXzisqedljbzeui058ESbmmgaERmXxVpaG1o42XJv7sHf4Ma0cFX4EUGIwZZhDDw9Mldsu3D4llOf2FM3GJSJypDqRgxJDT7YpyeWcOLh05A0kQkETZ5hiB5EoL4XJB3gcdlsJfIf/cVj1+EUsSqmkqsOBP62XtpsxWLebUaakz41QH09jy5eUYRsGPbQsz2WdS4912VLM/2oh5r9aKN3uDzmKSgobv/yGRR2fY+tw4DhcStOBRmq+uED5iIdCVNz7c8nZ2cPM/OUsyijEsqSbhoK6UQ7nSNuPeyVHTD7Dk443vDzCxCKrkbrDn9Ppj8fV3oMpbxHGCPAHAcXMti9qsIQ/vYuCoo1H87DhyXr+EMLnABXQYN3fzqb5I6spSgzxo/ueaE4GvjwRDHvGUQ3w3RgFIsecmYr8wsE6k9njpQl7GJ+p2njIwZqgDABlRJ3In/1dQyL52+BnvwP2/VBxnm7Dq7FQY7/AhT8PH+e2W9D4Q6+mGEKJx5RuxpyegmmM8xUi+h/nY043kzJ/4m/IStYGSl4L4DhQO5RrpslexdJXfNh2Vw+/X2xQ028aqD7uQZO1nMIZQ1LIetOC5r8ctB2247xvwmKd4LURUyXopXXXMVwvpbAo5xnIeyIKc5JmwrceerUmTHMGDr1K18VOfE/6av7fLpy3w/72OXF+oxI/Zy4aolGmgb+nh6Fsnm9G72roWbTYTODyeWyfOXDHWVmU+gP0eRpu2Gho/46s3Z/RvL2EQquFBVqGdu7Ur1up+1MnkVmFbNt/kitXP8WKm7aLo5L9g06aDjh5+fefcObARkryrVj+URmzm+G/7sQddtJ/5RpdwRiMswyDPdJ12TkiYd591Y1fY2Ju4jj6R8zEOFPBf80ZSqgflHv1El3BGExzQm6r0boIo9+J/bANR49paB1pkozE0033/zUM23eWht5rDty+ALxiYqZGpetqZ9hYVFxXbjy7V4+8YmKmJoDnP/swDuowx4jideHo7htzXU84J8rLRL6k0tPjHarv+aZ7zBOZo+dBdV2jK6jBNCd+QvkakwkjXVy6GvaBEPTQuqWMyrNepsyYa6YTlweMSaZJv2BpkozEB0fr4MZ5zYdiMo14vY1EInn2/OwvsR07drB169ah/08Jfwe2dh+GJeWUjA5x/LKcpcccHDv7Ob78widJ+AEYKKxYSlPBMeqOlmN+xwBRZj46uBF3fh0Lf+ulvPgt5sbCd9+cp+lQKx5tHs0fFxIe/FIy38KiaaXp4x6Ys5FFM8b2pKpeXGftBMJnUTuHrHTDcPkXdgJBld67XXR+ZqP1Blj27KUkAcBLy+oy7MYazrxverZWyF+D9XABlfllBNbnYYzw0Lq7CltwFedWPKmVm/oVZUR/kIdJ8dK2pxpHhIVPloV0S0mOR93fwOaD8RTO6KXtYxs9EYzY0dJnWzF/UEnVgQDxK2tIifgh+jwF0dHERPrxXHTgTjWjuXuejw90ACbUACh0Y9vSiOM/a9iWOxP1+ufceKjBPCt+lKAY9FroveHA+c1M5ird2D5qwh0Ec3hG+O0mSldG89FKMxqfk4btNtTXtrEqdbiK72wlxfEq5Zl6/K4Wqo70YFr5KVkaxoRvQcPSd0toyGmgdHU0m5aZiOxx0LDTDul7WZU6cBXNWsSiOXXU7WuCeduwDr7KZH4J5ektlFUUEHO/HEt8APfxKqo7Ytj27+WgWChZacK2Zx3F8QFWpWnwX2mk6nQvMPq9MIMqKSj46e6w406yYprs3VWKhZLVJmy7y3h72jZK0vX4rzZQvaeLOQcWUT66+kRzEhXJgjkK9iPV1BnLSQk6qTvshohRX1zutoyZB3/yRlalKyg3JpA/ZxVr3mih+IMCKtVyLHED9mpX2JgTAzzh6dDRBF3U/6GM6C15ofSK/dU4lCw+WRbSM3KahsiAG6fdjXmxacRnDPNLWJXRwtotBVSr5ZjjArhPVdFwy8jy7UuZKBg/xH07lUWNKO+fYVvG83kbmkTywvBTJ6H9GISSnzNGJK2H0/1xRihZ+54Q3btShXbWZnHpSQnyD0KJrznNT0pZ7xWNb2pF7Io2EZamGkrMf3Wz6AyT2+9pE7UrskXyjFih1WpFwqsZIv/Do6Lr3rijEOffTRBRUVqRsW9M+nBI7zFJ+FFC+5ta0T1OuTYhSWTkbxaNzrBxPOoWtb/WioR3L42RP8RAInTFhZGn7xzIENpZI8d3aV2S0L5eL+6EjXdzfqpIiNUKbWyCSP197dCDCaO5cyBDaH+9WdiaS0XGrFih1caKpNdLRaMrLEu9r1PU5ieLWK1WxL6aLSqOHRUVr2pHJhGLXnF0iVZEaVLHzP+E+jw6L0oTJpjn8cr/elTkTI8VpeeEEKJfdB8rFdm/TAjN7a/yRe1n9SI/djAxvV90n6wIlWu0InZWhig60CnGycEXfa56UfSbJBE7faDeIZuoej12ILl8IDl7Sa1ofDdDJMVqhTY2SWSsqBeXBtfRYLL2h41i85she2lnpIr8HefFncH5esJ4ex21ob61WqFNSBY5a46KrlFK3jmQLbSa2LG26usSR9fliOQE7cD8FYn6q2GNH/WKS7vyReqMUHny4s2i7ViFSIodeDBgDL3i/KYMkTRdK1J3dU9hDoQQok90HigV2b8MXWOxv8wWFc1dYuxjH5PPSb+7URT9emA+f1MqGk9WiYzpGaLWE+rHlh8rktYcFbZN2SL5lYF5+EOtuNQ7Nfmiv1vYPhy2R8Kv80WtY7Bxn7Dlj/pcGTX+0EMmRaJ2X5FInaEVUdpYkfRGqWi8PuqaeTNJxGoHHuq5XiWSp4ddGw9GzdlvikTtuTvD7UfXF4Ofr6HPz5D9tSL/5HgrWSKRTMT/EEKIn9oJlEieHSqO95J4++YarlwsH5s39zePn5acRNZFNfPX49bxw0xBO8XxxfiqbnJuxZT2MSR/g3j2ZJJ22MSZm3ufLg9UIpH8LHhBc8Akf7c87MDW7iclx/oCOl/hTCFzKvjz+MkeiUQikYxFOmCSFwr1wuc4VDN5iw0/tSo/Gi8rEKlMlG8TycsKKJEvPzedJM+fSCX0j8y8kkj+NpEhSIlEIpFIJJLnjNwBk0gkEolEInnOSAdMIpFIJBKJ5DkjHTCJRCKRSCSS54x0wCQSiUQikUieM9IBk0gkEolEInnOSAdMIpFIJBKJ5DkjHTCJRCKRSCSS54x0wCQSiUQikUieM9IBk0gkEolEInnO/B04YH7sKxOZNk3Hwj96n1DFTevOYhYmJ6LT6dAlzmPhyjrstwZ+b6+ngYW6aUybNvbQ5bTgAzy709DNqcQVBN+RXHS6TOq+Gaevr6tJ0yVS1q7C5bXMjh5HbnwZjuAEIzpdgG4cXaZN05G5xwNfVzNPnzZ+/8+boIOyRB0L/+R7fn1eq2Sebh7VX39/EZ79megS1+KcYB6+P35a8nTolrXi/zHEPw3PwFYSiUQieXoifmoFfnTuO/jf7X40GnC1tuJ5Z+PIH2n2OVi7+G2a7hrJW7mJT5NiwNfF5831FPzWSc0XZyifYWXj4RgKg9B3sZ61p6Hk4zUsmAbKP8xHD/SqKgRUVEBvNmOimrZ2DxtnjfxJaHd7G54oM5vSFLgeoB891u27eCs+rFKkkQUTzIwmdQ3NR95CpZ+upnU03LdSs+GfiYkAvSke7qsEHoP6ozgPT0uAfhVU9Tn+MLRuLuY3YaZ26k2c7yWS27OJm/YS9EB0ghlrdjwxP4qCkRjmW7FGxBP5o8h/Mv7TBSS+r9B8qxlrFN/LVhKJRCL54bzwDpjPbqMDM9s2R1K7vQ3bjY1smzNY6se+pZSmuynUfHmG8lmDP2trJS/fTOUbuVSva8Ly53LMAz/u7PO3UHlaYUFOHnmaJ3SaYGXRL6upbnfgWW8cdviCbhztPURmfIR5sG1ENDMz8shLfopBxaVgXZICqCjt62hiLtb8PAyD5V89hawXkYQ89h7Je6omalCFoMqgm6i3bqPZ+uxVC6FgXt+M+ccSPxFqAIKgDv79PWwlkUgkkh/OCx6C9GI77YQ0K0uXWFjwkpu2Vtdw8V0bjXYfxqJtYc7XABoz246e4N8KjEQ+9U6SActCE9xow3E77PQtB223IrFYzTzJd3uW9F1roDg9FFad/dsyWm+pw4WqB/uWAtKMOnT6OOZll9H01RMCYkEfjp0DdXVxzM4opuHaQN2OMhL1ubTcHa7u2Z85FI4NU4aGlZnMjtOhM6ZRsNuBLzgF+QCqF/vOAtKS4kLl6QXUdQyENIMOyuJ1LHy/ktw5ceOEYP20FsQx+70W7DtzSUvUoYufTebqJlz3Q+UteTpyj/tRL1cyW5dJw23wHhw1BtVD65YC0oxx6PQhHesuDodVvfsz0SWX0bCnmEyjDp0+kbSiJtwPxzOon9YCHXEr7SFHaLLxh/PQQ8v6hcxL1KGLS2SedS2t4WsMFfepSnJTQ/MeNyeTsoMu/AM6Jq52oD60U6zXUXDKP8JWqr2YuNHhyLst5MbFUXA6pI//qwbKsmcTp9cRZ0yjYIsdr4pEIpFInpIX2wG71UrbNTC/+c/o9f+MNU3BY2/DOXDDUN2ddAX0LEg1jdtcmWGhsMiC4XvsExqzLZhw4+jwDp3ztDvwRFl4K2uk+6X2+fDf94cOvx/1WdzQgh6O7XMQs3wXzR+XoL/VQun6Y4S08WFfnUtxOyzafoYzpw+xKr6Lyn8poOHWWFG+U6UUH+ghZec5LrQ3s1znpHpFbciOwX7UxyqBcGdLVeGxOrzLgor7wGbaopZSc+QE/5Yfw43db5Oz3YU6mXx82N/7HcWHfaRUHOLEsX3kxdygblkO1V+rQID+oIrzSy/mgxf5XyuNEBgZgu1XA3hPraPyaxMlB07QvDUL2teSU9SEFw1LD1xhr1WDMn8j566epCQBAipDIWXw0boym+LjPlI2HOLM8X0sj7lGXV42lZdDNQJB4FYLTR4zNV/e5MqRRfBFJaUH3ONOT78KgYGJnnj84ag4P8pl3ZcKS/ed49ypXVj6bZS+3zQwr+D909tkr7ahZmzjROsJaqwK57fkUPBHD4aVJ7mw3YyimKm5/Bf2LdaMsJWS9s+YIz202Yd19nXYcWLGkqFB/bqOnH+pp3tWOYdOn+Hkdgv+08X8boPjp89lk0gkkr8xXugQpLu1DddLZj7J0gPwz1kpKBfttF3dhjlDIXDfT4BoNNHKJJK+BzMWYZlTR117B753StDjxdHuJjJrDVlRYfWCHhqsiTSEndLkn+HuYcsPVCAS8wfN1CzTA3noexxkHrrEtYclGHpaqG2PpPzLk2wcCH2aU/X0Xl9I0zEX5TtTRkjqvdtLQInBND8FUzyYjlzFcrPvqRzTyKxdnNyfhx4gy4yh759YeKQe+4aTGCeSf6OR2rPfYd53gb3LQvNoyTASU1GN290DA+Fkw5I1lKcbn9Q9xC7nk+PbMEcBWEiJ6iV5dQNNX5VQ8ysj8RqgL5r4GXrGrIYbjdR/qWLZd3JIB3N6PH3pmTTtt7EmvTBUL8rChp2FpOiBhE2UpB9j3VUXPkyhcT+BqdvXjxqTxcaPN7ExWw+kYHrvPC0rB+b1JScN+xwo+Wc4udMS2mXNWIAhuoKG/3Tji8rDoFfgpUhijAb0oweqtfBWhobSjjbcW0yYInyc/9JJZManvKX107G+nm7zPr7Zkzewg2tmLt3Mer+Jz7dYKJxokBKJRCIZwc9+B+z48eMYDAYMBgPHjx+fesOgC9tnbpR5ZhZMU1EfqmjSLZgivLSddqICkVoNkfTi7/sxYihGFmUbweXgvA+4baftRiSWN7NG3eAN5O0/x7n24eOzzc8gOygiBlPS8B1xptGI8jhA/wPwX3fheeihLj3sCcroTOq+Uem93TNmN8OUU4hZcVA2P5G0vDKqP+tGM8eIZsoOmMKCDHOYE6KQkjEfzcMbdH0zsXy/242HuVjSw+7uiomSQ2f4pMg4JE8fM/HdX5PyP0kJc3z1GRYWRPTidnsn1X58HVKwpOpR3dfoGtz9mxaPYSiZXU9MnAb6+uibRP7U7avHsr6GvGlOGravpbhgIQu3O/A/9tPXB/yXC7dPISUjPMStwby+mTN78iZ0AgfrWnIsRN5y4LgF3HfiuBKJJceCJthN53U/fnsxcWFP3sattOMPePH0TCpcIpFIJGH87B2wrVu3cu/ePe7du8fWrVun3E69asN+G9TLlczT69DpdejmV+JSwdduo8MPimkBcyP9dF4eP0yk3nXh6HDzfV+gYMxehPGxE3uHD2+7A7fGwluZo7YdIiIxJJsxpw8fKQnPYkdOGbG/GRl+Mw8Cipltf77Clavhx3WufGwdm582o4Qz165zbs8qUiK7aV2/kH/KqMQ5lN8UHm6EvgfjOLQRo8f98lPIZ9K9WmVSZ3DU84ZPs/c76GCN1yY89DqqXHlpivKnMn6AoIeWgn/in4oa6WIm5n8tZ2PxgGP7jJ541WS8hSXKg6Pdg//i5ziV8JC5gqGoedSaucL1q2fY9DQPkUgkEonk5++AfT9UnKfb8Gos1NgvcOHPw8e57RY0/tCrKYhbyqpsPZ7j1TR8M8pp8LuoXrKQtz92TrqD8URmLWLRLOj8soXWdheajLdGhh9/IjRJRuLppvv/GjDNMYWOWRp6rzlw+wJj6nvONtBwEVKWbWTv8Qv85VQJMbfsOG4CSjRK0Ie3Z9B+Prpv9TDSmipdl51hO2sq7qud+KPmMHfWxPI1JhNGurh0NWxfLuihdUsZlWe9Ux6z/7oTd5hS/ivX6ArGYJxlmJq9gqN1cOO85kMxmZj7AwP5E9o3nBs2Gtq/I2v3ZzRvL6HQamGBlmG7vpKCSaty44prZP7dn9ZSttsxtS8SmizeyorEfdFGo92JkrU0tGYjZmKcCb03vSizTEPrxhD04Ljs4bsXOplBIpFInj0/+4/NHTt2DO187dixY2qN/B3Y2n0YlpRTkpEyMuT3y3KWHnNw7Ozn+PILse7eR+EbxVS+sZCu1ct5a9YvUO93cf5wI60+M3u/KGGCzKJJMLLIaqTu4zrqHmuwNo8OPwLBProvtmLvCSt5SU9Kdgqaq3Xk7ull1eG9WJ9lfs38EsrTWyirKCDmfjmW+ADu41VUd8Sw7d/Lx1SPvOugekcLXb4aVpkUus+66I2agzEeiFhASlQTth3VLNhsQbnRSMMVIHqkDL+9kuJ4lfJMPf7rLVQd7sFYtBerBnonkq9fxZo3Wij+oIBKtRxL3ICu7Qobc2KAG1Mb8+0mSldG89FKMxqfk4btNtTXtrEqNVSsRP0C9dtOOi5bWZ5uGGOvVRktrN1SQLVajjkugPtUFQ23jCzfvhQ9fH8nfTL7hhMdTUykH89FB+5UM5q75/n4QAdgQg0AiplVFWZsW8p4O2YbJaka/JebqN7fSfzOcvSAOk1DZMCN0+7GvHi83DSFrDctaJY3UB8Zw9JT5oE1q2HpuyU05NRRsBI2LUtBc9dBw/YmerJPUAiol3+k9SqRSCQvIuIFpL+tSMROzxC1N8cv7/44Q2in54ij9wZO3OsSRz/MFxmvxgqtViu0Ccki+51acd7bP6Zt37EcoZ2eL2wPRsnclSq0r24WnY9GNfi2XmRPjxJRM0rF+VFthLNCJGmiRFTUqGN6jjjaOzAObbao9z55rOffiRXaNxvFnfCT16tE8vTUEeMP2SRszH1d4ui6HJGcoBVabaxIer1I1F/tG7+TR3fE+Y9yROoMrYjSaEXCr/JFlaN3qPhOa4XImKUV2ukJIvX3taJtX46IHbTFo/OiNCFWFB1qE1X5ySJhulZoE1JF/kdt4s6jqckX/d3C9mG+SJ0R0jXh1/midrD80XlRmqAVOc1h9UeMv08cXawV2iW1ovHdDJEUqxXa2CSRsaJeXLoX1oW7UeS/Fiu0sUWi7YEQdw5kjJzPB6Ps9ZsiUXtu2Opj6gshLq1LEtrX60fOTcj4wpavFbEr2kT/VMY/rKXoPlYqsn+ZILTaUL3az+pFfmyyqLo+LLuruUJkvxaqE/tqhig60CmGZravU9S+mSRitUmiwjnaVoNjPS9KZ0SJqFc3i0ujLoFeR60o+k2SiB24TnI+bBPdA3Wmsl4lEolEEuJ/CCHET+0ESiQ/Hn5achJZF9XMX49bx+5ASiQSiUTyE/CC5oBJJKORbwuVSCQSyc8H6YBJXnheViBSkXtfEolEIvn5IEOQEolEIpFIJM8ZuQMmkUgkEolE8pyRDphEIpFIJBLJc0Y6YBKJRCKRSCTPGemASSQSiUQikTxnpAMmkUgkEolE8pyRDphEIpFIJBLJc0Y6YBKJRCKRSCTPGemASSQSiUQikTxnpAMmkUgkEolE8px5gR0wFa+9moKM2cTpdOjiZ5O5sg6nb6A46KY6VcfsD1wjmwWdrE3SkbnHMyzpRguVeWkkxunQ6ROZl11G0zX/ULlndxq6adOYNnDo4meTuboJ12CVh3aK44bLh47oeVRfA/DRZNUxbVocuX/yjtTnmzrS9LOp/GqcvqJ1xCXNY2FRJS1f+Ua2u7yW2dHj9BlfhiM4ViedPpHZ6bmU7bHjeTi5df2nC0aMefgYsN3X1czTp1H3zeSyfnSCDsoSdSz8k2/yus+Ka5XM082j+uvvL8KzPxNd4lqcwWen1jB+WvJ06Ja14p+88guP8/1EdNYmfsgKeRYyJBLJ3w8RP7UCPxb+jkp+V3wMzeJt7FtvRPlvJ427qsn9vcKVL8sxooIK/cHRP9KsElBBVQfO+1opXlyGM76Ejw5uIz7owX6glrX53xF5+SSFcQN1tRY27i9kLiq91200Hl5LgT+aqyfz0KOiBsGYX8OmrJiwvjSYjAD9qEEAP459H+NY8gkWzUCVoAqP+1H7B7RTVVSNmY37VzEz+B19316jrbWJsjds2Pe0c2aFcaBdgH70WLfv4q34sC4jjSyIAAIDOi3by6asaPrv9+Jx2mjZWYDts3LOfFGDWftk+2pS19B85C1U+ulqWkfDfSs1G/6ZmAjQm+LhvkrgMQPj+qkJ0K+COmjE54FuLuY3YeYENhyN871Ecns2cdNegh6ITjBjzY4nZtKW34dIDPOtWCPiifxR5P9toT5WIajyQ1bIs5AhkUj+fnhhHbDOsza8mqWcOVCORQGwkBLVS+YHbThul2NMmJocf4eNjvtGyk/vpSQ5JMcyT8H721ocF30ULtOHKirxmN+0Yo4AFudhiphH5sEW2u7mURINoBBtspK3xPDEvpQ5Joy3bNQdLsey3vjkeoqBlMVWLBEAhZRUlFC3JJvqD9fSkHGO8sGxRUQzMyOPvOQnSiI6KYu8xQM6rShnzdkyMosaKNth5i/7LTzxJ6zjUrAuSQFUlPZ1NDEXa34eQ6P76onq/32QkMfeI3lP1UQNjryB663baLY+e9VCKJjXN2P+scRLJBKJZEJe2BCkEqnAAy+e/xo+p89v5j96LlA+46kEAX103wwLLCSUcO7bbzk56HyNgynJiBLspfdp4hHGEjYt0eA6VEXr07SLMrFx5yqMARe2zzyT158A/eIatmVr8J610TGFUORk9F1roDg9EZ1Ox+zfltF6K2zHUfVg31JAmlGHTh8XCu1+9YSAWNCHY+dAXV0cszOKaRgMA3eUkajPpeXucHXP/kx0cypxhe/A9V2jYWUms+N06IxpFOx24AtOQT6A6sW+s4C0pLhQeXoBdR0DkxR0UBavY+H7leTOiRsnBOuntSCO2e+1YN+ZS1qibjhMfT9U3pKnI/e4H/VyJbN1mTTcBu/BUWNQPbRuKSDNGIdOH9Kx7uLwQvHuz0SXXEbDnmIyjaFweVpRE+5x59FPa4GOuJV21KmMPwz16ybKsgdNyT+CAAAgAElEQVRC+4nzyN1ixxsE8NKQrWP2emfYvIVsk3t8QNZ9Jw1FA3OgTyRt2XBagPdgJrrUSlpPVbIwOS4U7reupeWbkbvU/q8aQv3rdcQZ0yjYYsc7WOVaJfP0mVQerKYg9Qnrzu+m5f2FzIsf0H97Kz2jN8LvOqgb1DNuNplFdTjD1teUZEgkEskEvLAOWMryVaREOKn8bRoFHzRgv+bj+3w+arJWUTLDj70ilcyV1TS1u/FNQVBPjw8iYogJD0Gpfvz3w44xN8ZfkLVhDeYHHdQecD2dvnPMmPUqHrd7RDu1zzfcn9+POqlQDeb0uSh+D13fPo0C4xD0cGyfg5jlu2j+uAT9rRZK1x/DC4AP++pcitth0fYznDl9iFXxXVT+SwENt8aK8p0qpfhADyk7z3GhvZnlOifVK2pxqkCwH/WxSiDc2VJVeKyG2ULFfWAzbVFLqTlygn/Lj+HG7rfJ2R6y84Ty8WF/73cUH/aRUnGIE8f2kRdzg7plOVR/rQIB+oMqzi+9mA9e5H+tNEJgZAi2Xw3gPbWOyq9NlBw4QfPWLGhfS05RE140LD1whb1WDcr8jZy7epKSBAiohELFA/ZqXZlN8XEfKRsOceb4PpbHXKMuL5vKy6EagSBwq4Umj5maL29y5cgi+KKS0gPucaenX4XAwIKYePzhc+qiekUl56eV0Nx+gTPbzfQeXs26oz4ggKpC/4iw80D4N6ACKo4txVS749lw6gLnjm/CeLOO4i12/AyM91YTFR97MW9o5sTBNSy4Z6NscenQFxL16zpy/qWe7lnlHDp9hpPbLfhPF/O7DY5QLttjCARcNJ3s462DF7h58VPm+8LXnZeWldmUne1jweZmThzYRMqtWqrOhjmbfidr33ybY34zG46c4cyRDZj+Wk/ukmpc6hRlSCQSyWSIF5h+T5uoXZEhkqZHiaioKBH7yxxRde5OqPBRp6j6pVYkrLs0stGj86I0QStSd3QNn+vrEkc/zBepCVoRFRUlol5JFUX7Lom+geKuj5KFNqFUtPX2ib7eO6LrXK3ImREltK/Xi24hhHhgE/kDOow4Xt0sOh8JIcQdUf+GVmj/0Cb6Rb+4tC5ZRMXmiEavEMJdJVK1CaLiwsi+zj8aNdhHXaLqtSihXXxU9AohxIVSkaAZ22fsivOh+g9sIn+6VmQcuDPWbq35QqtJEpuvTsnKou0PWqF9vV6MkHR1s0jSxIqcY71Dpzo/ShZR0/OF7YEQ4matSJ2eLKquh4+hU1S9phVJH3aO6aVrV6rQvpIjjnoHTjzoFV2ubtH3SAhxrkjEarND9hqge1eq0M6qEJceCSEetYmi2CgR+3ubGNamX1xakySiYvOFrW8S+e4qkaodORbR3yUa38kRpc3dQ/JH6H11s0jSpooqtxBC9Imji7Ui6tUKcenBcJXek/kiNszO59+JFdo3hu3Y/XGG0M4YGMO4OnSKzWFz3v1xhtBOzxFHh6r0iqOLtUL7ZmPYuAcJ6aT9vU30T2bfcB60iaLpUSJ5U6foH5Tk6RJd3n4hRLeo/Y1WJKwJu6YetYmi6VqRfbhXCNErGt/UCu3rtaJ7sHFvt+i82Sv6B/XXDNpsgG/rRfZ0rUj9uFsI0Sfa/hArYvNtQ9eeEEL0ncwXsYPjHlh3RW39Q+XdH6cK7eC6u14lkjVakXN4lB1/GTVk+97D2UI7q1ScD5sr8W29yNDGitJz/VOSIZFIJJPxs98BO378OAaDAYPBwPHjx5+qrTLDysbDF/iPW//BuUMbMeOkruj/HQgLKaEMuPGSxIOMzI7TmCjceZIrnm+5/tleyk1+7NsLKD7iHaqi+looSIwjLnE2aXnVdGoL+bdPSgjP5DKtaOZc+7nh42gJpjFZeArminKsEQ4a9jmf4gm1PvoeAppfoBk6ZyBv/7kRfX62efKsH7/fD2iIjppy5+MTEYMpaThMO9NoRHkcoP8B+K+78Dz0UJce/lRoJnXfqPTe7hkzblNOIWbFQdn8RNLyyqj+rBvNHCOaKWcxKizIMKMP+zslYz6ahzfo+mZi+X63Gw9zsaSHhZwVEyWHzvBJkXFInj7mySFpAE3K/yQlzKb6DAsLInpxu72Taj++DilYUvWo7mt0Da7jafEYhnZd9cTEaaCvj75J5E/ZvlFmCotM9BzMJDF5IcUfNOBUDZjin5AtOOL60rNomZWY/6+atKR5LFxZTZMbZs7SD+cavmLGMiusSYIFs5HQzm6wm87rfvz2YuLCnryNW2nHH/Di6RloExGD4R+G9YmJi4fBdXfTTU+ECfNoO6YN/911vQu1p4VcfdjanFOJSw3Qfbt3SjIkEolkMn72Sfhbt27l3r17Q/9ftmzZFFqp+L7x0Kc3YdQCGgPmZdswmxTS0utwXvSycQYoEYOhkTCCoZCJooTcGH+PG+9jA6YEDURoMGaVUJNuRJ23kGN/voa/yACAorWw7Ug5pgiF6BgDxhn6UQnsCso/zsecbphc/bhCNq1uInNfNY1pU0yTvu3C7VNCuWeD5yIiMSSbMT8xCX88VFyublSNmZmJT9NuPJQRKywyfLUFAcXMti9qsESNbKNo48OcyAFmlHDmmhmnvY22Dget6xfScKicM3+uGUgkV0eEXvsejBNrjRjlJES8PCX5c4fqTzLaSa+mUc8bPs3VN+jIjNcm3MkZVa68NEX5E9l3xPxoMO++wM28DtrsDhzttRT8sR7rgQucXEZo7T0Os33gO/yPh//UL2nmL/NXYT/bxvmLbVTlNdCQ38yVQxM8bTBiTAqGok85sXLkQypKhIaYGcD/CdV54robVyYwZKdQKFtJLufEwaUjn0CNUNDEGcA+mQyJRCKZnJ/9Dtj3Iuih8Q9ppK0c/508iuYXEGHAkBhJwO3CHXYDU2904n4cSfyMGEClc08Oab+twD7OVlSkRjN8S1XiMaWbMaenYBrjfD09ptXbWKpz0bjPMfkuWNBL665juF5KYVHOk5+enAr+r+qot/swWJeS9UN3wCZAk2Qknm66/68B0xxT6JilofeaA7cvMKa+52wDDRchZdlG9h6/wF9OlRBzy47jJqBEowR9eIeyoH103+oZlUOn0nU5fEdRxX21E3/UHObOmli+xmTCSBeXrobNRNBD65YyKs96pzxm/3Un7vBc8CvX6ArGYJxlmJq9gqN1cOO85kMxmZj7A79KTWjfcHxOmvbY6I6zUrL9E85cu8LedD8dXzjxE40yDfw9PcPX3TeegQR9AC+Og3XY788k7/0amu3XaV9vpNfuoHOwzn+7cN4O768TlweMSSaUiJkYZ0LvTS/KLNPQujEEPTgue/huCjbQGE3EB7vpdIV9MgzYMYTCnKSZ8K2HXu1wHya9StfFTnzqVGRIJBLJ5Pzsd8B27NjB1q1bh/4/JSJMLC020/hBFQXvw5ocI5o+D6176vG8spRt2aH9FevKQmpzGiheqbApPwXNfRctHzfRM6OcTzNCLpS5qBBTax0Vy2L47l0Lhggf7uO1HLtnomS5+SkcLZW+mx20no0JaxNJfLoF03jvitJY2PCeGdt6J76IkaENVfXi+sJOIKjSe7eLzs9stN4Ay569lIS/XiPYR/fFVuw9YVq+pCclO2UgFBfSyX42BvVBL93X2mhtddKbWM6J7aFXUKiX68jd08uqw3uxPssIy/wSytNbKKsoIOZ+OZb4AO7jVVR3xLDt38vHVI+866B6RwtdvhpWmRS6z7rojZqDMR6IWEBKVBO2HdUs2GxBudFIwxUgeqQMv72S4niV8kw9/ustVB3uwVi0F6sGeieSr1/FmjdaKP6ggEq1HEvcgK7tChtzYoAbUxvz7SZKV0bz0UozGp+Thu021Ne2sSo1VKxE/QL12046LltZPnqndH4JqzJaWLulgGq1HHNcAPepKhpuGVm+fSl6mDTMOBET2jecaSruI2XUXu5h13oL+vtOHB6Iz5+JBj0pyfGo+xvYfDCewhm9tH1soyeCgZ2kl/Ffraf0UBfeXaswR/toc3ph1lIMg59EQRf1fygjeksepggvbfurcShZfLIs9MVi6bslNOTUUbASNi1LQXPXQcP2JnqyT1A4lYHOX86q9EbWbimmko0sivPjPlVL47cKzAtVMeSvwXq4gMr8MgLr8zBGeGjdXYUtuIpzK6Ym40e7biQSyYvDT52E9uPRJ7qaK0TOrxJErDZKaF9JEhl/qBJt3/aPqHXnXK0oej1JxE7XCm1Cssh+p15c+utISb3OelH6RrJImK4V2ukJIvmNUlHvHE7ADSV8bw4lS4/Hg1CS9pgk/KhYUXSuXwwmJw8lyA/S3yk2v6YVUWGJ2t27UoU2TIY2IUlk5G8Wjc5RadbOCpE0ThJ+1GCy8midtLEi6VfZonRXm+gOSz7ubwsluNd7xRM5/06s0L7ZODL5+HqVSJ6eKmpvjpI1PUccvTdwoq9LHF2XI5ITtEKrjRVJrxeJ+qvh6dVhPLojzn+UI1JnaEWURisSfpUvqhzDY77TWiEyZoXmJ/X3taJtX46IHXzI4dF5UZoQK4oOtYmq/IF5TEgV+R+1iTuPpiZf9HcL24f5InVGSNeEX+eL2sHygQc3cprD6o8Y/0DC+5Ja0fhuhkiK1QptbJLIWFEvLt0L68LdKPJfixXa2CLR9kCIOwcyhHboQQ0hxINR9vpNkagdfKhEjFNfCHFpXdLYByRCxhe2fK2IXdEWSqafbPzhLa83itLXk4auq+x3j4quwTXT1ylq85NFrFYrYl/NFhXHjoqKV7XDDw/0XhK1fwjZIGp6gkhevFm0fRsqCj10UCRq9xWF9NDGiqQ3SkXj9ZFrotdRK4p+kyRitaFrNufDtuGk/qmsu3udov6d4XnIXnNU2D5MFbFhDyv0e9rE5vxUkRCrFdrY0Jo6H/65MImMqVw3Eonk75v/IYQQP7UTKJG82PhpyUlkXVQzfz1u/cHh6RcVz55M0g6bOHNzb+iFxhKJRPIC82LmgEkkP0vkmzolEolEEkI6YBLJc+BlBSIVufc1EZFK6B9pJYlE8veADEFKJBKJRCKRPGfkDphEIpFIJBLJc0Y6YBKJRCKRSCTPGemASSQSiUQikTxnpAMmkUgkEolE8pyRDphEIpFIJBLJc0Y6YBKJRCKRSCTPGemASSQSiUQikTxnpAMmkUgkEolE8pyRDphEIpFIJBLJc+aFd8B8l5tYm5fG7HgdOl0cs9NzWfsnF77gOJW/qSNNN41pSWtxjv7Zvod2iuOmMU2fSd2NUX0cyUUXV4w9vE3Qj+tIJQUZs4nT69DFJTLPWkZDhze8JU1WHdOmTRt16Mg8GKrn2Z2GLmktzvH0vbyW2bq0Mfo8lezB89E64pLmsbCokpavfE826ND43FTPHy174Igrxq76aS3QEbfS/rP4BUTvwcwn2/FHwrM/E13iD+gz6KAsXsfCP3qfpVrPT/5PiP94LrrEMhxBIOiics7wuv++ON9PRGdtYgpXh0QikUxKxE+twI+HiuePb5P9gZOXM5ZTsnMTBuU7uq+00vjBQpzXm2k/ZEUf1sLVasMTqUFzt42WjhrMVmWEPDUIPHRRv7uVwpN5Q237AyoEI4erBr20rvwdpV/0Y8pfRc3qmfxC9dJ5tonqvPN0HrjAyWUGoB81CMr8Ev5t9QJeHhKgoJ8XE+pVVUENjO/EBAP0D+o1hqnJVjVmNu5fxczgd/R9e4221ibK3rBh39POmRXGJ5s3wsjSnc3M9AM9n1O9s4P4dz+l0AREGklR4LwKgZd+Du4XBFSebMcfiegEM9bseGKm2qCngYXzmzCe/g/2pgPEYMqyok/4xY+k4Y8t/6dDDaig9hMI/YX6GFADP0zmYxWCKv3PQD+JRCJ5cR2wGw0Uf+Qk+g8nuLjfgmbgtHVJIXmmXDIrKqlenMUnWQNOluqk7bMe4pfVYLlYSctZO35r3lC7QYzJJnrba6n/ykrNr8b/2WDv0XVUnO0n69AFTuYbhs5bly1lwcpMCrZU0pJ1ksJBDy5mAW8tGdvXM2ES2YpiIGWxFUsEQCElFSXULcmm+sO1NGScozzhSYIVjFl5GAG+8VK/24khPY+8rMFy/zMdxt8ieus2mq1P0SAA6uN+AoMOdYSJksPNP4Zqz0e+RCKRSJ7ICxqCVHEeO4Y7IotNWy1jnA9D0aecPLQBs274G7F6tQ3bf8djyVnOoqx4/B2f8/n90XIVDAWbKEzw0LTrGN7xug66aW12EHhtDTVhzlcIPdY9Jzi53YLhOYbCnoooExt3rsIYcGH7zPPD5T32YvtgIfPideji55G72znCNfN/1UBZdihMG2dMo2CLHe8TtqnUr5tCdXU6dInzyN1ixztgR/f2eejS6/AM2dVPS56OuJWOMAn99JytJHd+HDp9HPOsa2m5EabNfScNRZnMjtOh0yeStqwOZ1i8yX+tibXWeSTqQ/0vfL8F98OBwmuVzNNnUvZBAfMS51F5eSDsOacSVxD4upp5+oXU2Zso+21ovImpBVTbvaFduWuVzJtfiUv10WKdRtx7jlCIMFFH7pFhJXyXGyjLnhcKayfOI3d9mA4DIcXc7SE943Q64uYspLL9CUGzUfInsu/YyfBi31lAWlLcQGi/gLqO4X7U23aq89IGbDWbzJVNT6mnivtUJbmpieh0OuLmZFJ20BW2dlTcx9eSOz9Unjg/l7XH3VPf4bzroG5wruNmk1lUh/NuWLnfTcv7A+s2cR6521vp+Xls5kokkheEF9QB68H1dS/KrAXM145Xriclv5C85EHXTKXjVBu+VywsSlZIybJgeNiB3T7OjSsyhTUbrERebuDj9nF2efxduG5BfJoZw3hda0xYiwoxx4WdC/bx3X0//sHD/ww/6b+P7DlmzHoVj/spbmhPQO2op8lnZtP+T9mWHsC5u4yqyyGp6td15PxLPd2zyjl0+gwnt1vwny7mdxscY/fPgi6qV1RyfloJze0XOLPdTO/h1aw7OuA8qAFQ1TB9VQIqBIJhYcf7dqp2eUmpaObEHzexoM9G2eLVtNwN1XdsKabaHc+GUxc4d3wTxpt1FG+x4x/U9c1KOqYtZdfxEzRvMKOeLSPnndZQTtBjCARcfH5jJjVnz7Bp/kDYMzCgU0AlEHBRV9ECi2poPvIpqxI9NBTnUnnRD8mbOPNZOSZFQ96h61zZbgEC9KugBkJBL/VaNTlLqunULmXf8TM0bzbTd7qM7GUtA18GAvQHVRxH2oh+5yRfXz/HRzO7aVi9GfuYLxOMlD+JfUfiw/7e7yg+7COl4hAnju0jL+YGdctyqP5ahaCbht8X0/jAwq7T5zi3bznRlyspPeAe7ncSPb1/epvs1TbUjG2caD1BjVXh/JYcCv7oGS7f4iJm+T7OfHGGfXmRdFTkUHxqChlafidr33ybY34zG46c4cyRDZj+Wk/ukmpcKoCXlpXZlJ3tY8HmZk4c2ETKrVqqzspdXYlE8ux4MUOQwT76+lT4Rw1Tym7x2/nfHT4M+YtIiQDmW8iKa+DY6Ta8RSUjHCn1MeiXbGLNoUzqdjdSnrWRyBGy/PShEB099YCi2r6W2fFrh08oKdRcvUD5jCmLeMayo4nWAA/78QPjB1qnyCuF7D28MWTXdOjsKMZ12QPpBjoO1NNt3sc3ewZDpGbm0s2s95v4fItlOEQLEPDRe1clOisF83wTyvy9tKcU4o18msCtkVV/OsnGZAALlmQF7/y1NB1xU7glhp67ftDOZMF8E0bFRIrJjOt+NJH4sR+oxxVfwoXmjaQoofYpryhUHO2myw8WADS89e5GLHNCFusdR4OUDSf45B0DAJYMI2pGGg0HP2dTRiGGf4hBQeHlOCMGLTBi98mP/UAj7vgSLhwe1MFMSmQPye99TNNXhdS8FqppyN/GtuxQ/l5JxVIa3rBxyQ3WjAlM8zT2vdFI7dnvMO+7wN5l+qGxxFRU43b3gFElOrWcfSXbyJsBkEL55WPkXnbh/cA0dD09Uc9UJw37HCj5Zzi5c2AHO2MBhugKGv7TjU/tpWGfk7kb/sIn7w5I+1UKkT1JvH3Yhie/nOgJhuo7XcexwFJOHN+GJSpkR/M/+nHPr+XYxY2kxByjoSOAZc9nfLJicHzx9KVm0jSBXIlEInkafvYO2PHjx9m6dSsAO3bsYNmyZZM3iogmOlqB7/x8B5PmVvnsNpx+A29lzER9qAJz+Z/peppO27DfKhnrrESYWPXBUo4VNFJ1upCa8DKNhmhUvPd8MP4e2BiUX23kxFZzmKMTzcwn5l49Hd9Pdh99DwHNL35wXpqSNBfT4CrTxDMzTuHGgz4IdtN53Y//djFx04pHNoow4umBEU9IRJkpLDKRezCTxA4zliwLbxUUYp3xFO7hK2Ysc8L+jjdjTlKou9GFn0IWLbPSsLqatCQbKRmLWLRkKUuz9ChBF13X/egzLAOOTwh9dg0ns8P1jkEfM4E+EUbMGYYw45gwpxqoO3uN7mDhiOGOIdhNl3scHdItzI1w4rruhdcAFOINYZJiY4iP8NP3YCLhPJV9/W43HuZSmB7Wj2Ki5NCZoT9LdhpwfdlEdbOb7lteem72grYX/5BTOYGe/+XC7VNIyTCHrT8N5vXNmAFuNeD2qbg+mM20D0Ypp/XgDcLcCYbadb0LtcdJrr5lVIkCt3vx33fTE2EaNb4ULGl6mr6dQLBEIpE8BT97B2zr1q3cu3dv6P9TcsCIJyU5BvWUE6evHMOYO5sfz8VOeg1mzAl+2k478QdVWnLiGPmR7MP2mYfyD8Y+DajJ3kB5+udU7qvnX5eHF8wlZQY4r7rwkMKYlg+9uJw9RKeZMQ7eXf6fmSxIN/84SfjfR/bt0A3QlGT8YbtfY1BGrTgFQ9GnnFg50kpKhIaYMTt0Gsy7L3Azr4M2uwNHey0Ff6zHOvRE6Wj6USd9XC0S5aXhv/RLmvnL/FXYz7Zx/mIbVXkNNOQ3c+XAhK7RBOMbp3z0mR96BU7afqoz+LT2naDvu3bK3izm84gsCgss/Gu6le++qGTd9WehJ4AKaLDub2fT/FFSlBjiIyZ6BEQlEAQluZwTB5eOfEI1QkETZwD74N+jmr6ERCKRPDNe0BwwBfPy5ZgCDhp2js0n8h5fTXbOOlr/MwC3bdiugumdZi78+ULY0UzJLHB/ZsM9biKygeWbC4m/3URta+9wnlGEibxiM5Ff11N1yjuqjQ/7+t+RuboR9881oTfopXXXMVwvpbAoZ4LXUPxQImZinAm9N70os0yY5oQOQ9CD47KH70bf/HxOmvbY6I6zUrL9E85cu8LedD8dX4SS+pVpGrjrpWcw0fuhB8/tUUb+bxfO2yNlOr9RiZ8zFw1eHAfrsN+fSd77NTTbr9O+3kiv3UEnM5lr0uC/5hyxFvyXG1j7XgOuh0yNYDeuK2E5SkEPrmu9KEkmZk7mSEXMxDhTGavD1Ut0BWMwzZnyyy7GZxL7hqMxmTDSxaWrYSVBD61byqg868V7thHbf6Xw0emT1LxfiDXbTExE39R1eSUFk1blxhXXiJw+95/WUrbbge8VEzM1ATz/2YdxzuDaMaJ4XTi6+yZx5RTmJM2Ebz30aofXnUmv0nWxE58KGqOJ+GA3na7wuXLjvCbfACaRSJ4dP/sdsB07dowIQU6ZOeV8usVJzva3SbtbQsmSBRijVDyXW2g66iJ6xQlqsjR49thwv5RCTUUeKeGJ8aSgL2nh2Po2bP9nG6Y5Y7tQfrWGTW/YKD7rgahhZ8Xwh0+ocf6OsvcyWehaQ57ZyC+CPXSebqDpIuQdqCEvfFOlt5PPzyoj8tU0RjPmWaF9K1X14jprJzA0W5HEp1swAQT76L7Yir1n+LYTaTRjmfUUsr+wEwiq9N7tovMzG603wLJnLyUJAF5aVpdhN9Zw5n3T1O0/KRqWvltCQ04dBSth07IUNHcdNGxvoif7BIWjq09TcR8po/ZyD7vWW9Dfd+LwQHz+TDSAcf5cNHts1G5pIXJJDD2nqvl8TNjNTf2KMqI/yMOkeGnbU40jwsIny0yAD//VekoPdeHdtQpztI82pxdmLcUQoSH+vVXUv9lA8epoPso3EXnXQcP2BrrTm9kUNdUx+3HsLGAtG1maCO7T1dR+HcPSk0tD4UeNgoKf7g477iQrphEPkAzaq4HS1dFsWmYissdBw047pO9lVeoP3KucxL4jmLOKNW+0UPxBAZVqOZa4AO7jVVS3K2zMieEXqobI4A0ufekia7EB/9V66ux+VK06tYc6FDOrKszYtpTxdsw2SlI1+C83Ub2/k/id5egVAyWrTdh2l/H2tG2UpOvxX22gek8Xcw4sonwS8Yb8NVgPF1CZX0ZgfR7GCA+tu6uwBVdxbgUwfzmr0htZu6WYSjayKM6P+1Qtjd8qMC8kQ71cR+6eXlYd3ot1qhukEolEEo54oekXdxy1ovTNZJEQqxXa6bEi6Tf5YvOxLtEnhBCiW9T+WisS3mkb+HsUfW2idIZWJH/YKcSDNlEUqxU5x0bVvFkvMqZHiajYItHWH3b+Ua+4dKhC5Pw6ScRO1wptbJJIXVwhGp29YZV6ReObWhEVFTXmSNrUGdJwV6rQjimPFUVt/UI4K0SS5kltn162NiFJZORvHqnjowEbvXvpyWb21IsMbYKouDDCeMKWrxWxK9rEkFkGZCV/2DlsAUetKPpNkojVaoU2IVnkfNgmusPtGC7xeqMofT1JxGqjhPaVJJH97lHR9WDYluc/zBZJsVqhfSVZ5HzUJhpXxIrYFedFvxDizoEMof31ZmFrLhUZs2KFVhsrkl4vFY2usPnsvSRq/5AhkmK1Imp6gkhevFm0fRtWfLVelL6RHJrPV5JF9pqw/q9XieTpqaL25nD9OwcyhPbVzaLzkRDi6maRpE0VFQeqRP5rCUKr0YqE13LE5tbuYfuIXnF+U4ZImq4Vqbu6hXh0XpQmaGJgJmcAABJjSURBVEVO8/B8jLHXmqOia3AI49QXfz0qcqbHitJz4xh0VP2J7TuK/m5h+zBfpM7QCq02ViT8Ol/UOgb6fXRHtG3KEckzYoV20I6HS0VCQqk4/2iqevaJruYKkf1agtBqtSL21QxRdKAz7DrtE50HSkX2L2ND5b/MFhXNXUO27DuWI7RD/XWKza9qRcaBO8Pqe9rE5vzU0OdCbIJI/X2tOP/XsPHd6xT174TWgjY2SWSvOSpsH6aK2Dcb///27j+myXvfA/j75JDQE0zK8jSWtIk05cYSyqyDCA5y7B3syh0euyOc4YVNXYniBg4vOn/QIQoaHOhEwB0PuMtEogYW5orRWW70iIkK5GioiaY1x1mX40mbqxlNNH2INZ/7Rwu05adzdh78vGIX6fN9vj8+z0P62ff7fSo5ichjNpJCyKYGxyTxYYyxafyGiOjXTgIZm/WumpC4vBd5Fy6jcoLZVMYYY6+WWboHjDHGGGPs5cUJGGPhEClB5G9/gaceGWOMzQq8BMkYY4wxFmY8A8YYY4wxFmacgDHGGGOMhRknYIwxxhhjYcYJGGOMMcZYmHECxhhjjDEWZpyAMcYYY4yFGSdgjDHGGGNhxgkYY4wxxliYcQLGGGOMMRZmszcBu7QJidFzMGdOyCu2BBavG53GOMhSTOh9HHiSG72fJkOmLYHl8QR1yJRINmxC2y3RX96FFoMMynXdEAHgcTcKlcHl41KWoeQv/XDPqF/j65DJ45C4JBcl+7thD+rrxNzfFEAWWvecOZgzR4bM/XbgejWS5emou/WLRfrn81pQEifDsq9c4WtzwIRkWTKqr//8KuwHMyGL24Re7y/XrTFutOXJIFvVOXbPvCReyLi9VlSnyZD+uf0XrJQxxl5+s/dfpvMOwwM5DLv24o+xAe9HarA4Qgrpjm1o+70JpvqVOF+hgwSAeLUWm44OYWlTJbKiRupQwbCnBv8VK+Kn+33obGpByXvDiLnyJbKkHoheYFgcSchEiF5Ak1+D0gwp8NgFa/cxHNueA2fkZXQZVdP0C8Cwv45VB7BtaTQ8D52w93agbU8BOr4tRdfpGuiFyYctTduI1q//CBEeDLZsRuNDA2q2/CdiIgC5LhZ4KGL4KSC+kOThWQ3DIwKi6Alfk7KF0C8H4qeIYajeT+KQe28bbnYXQQ4gWq2HITsWMS+kg5FQpRhgiIhF5Aup/+d7MeMWfX9Gf4cYY+zVMHsTMACIiEZ8Rh7ykiY4pi7CgbIOpO8zoSXvDErVdjR+1gJnxhfoypcH1CFFfIYBhgUAkIeV84ehzfsOHRe+QNaKiRqVICbZgDX5Kt+PH+ghSctEy6leuIwqyKfrl7+OaO1S5K3w17G2FBtPlSDT2IiS3Xr87WAWJJOdqkyF4b1UACIkZzejBQthyM+DauT41clOfEWo83Dg67xnOkX0ioBXxEiaKDdUotXwy3fNRwL9p63Qv6jqn8OLHTdjjL1aZu8S5AxoNhxAqaYftdtb0PvVJjTc0WPn52vGkpUJSDQ6xEcMw3XfObNGIqIRPQeAd/i5+ipfUYPKbCkcpzrQM4OlyOkMDTSicEkcZDIZEv+jBJ23A2YgRDu6KwqQrpFBJlciObsELVcnWRDzumDZ4y8rUyIxoxCNA/6yPSWIk+ei7f5YcfvBTMgWmNAfOAM3NIDGdZlIVMog06Sj4HMLXKPHRdi/MWFZiq+vyqRl2NRux2hvRQe69xQgXav0tb+kAHU9/iVNrwUlsTIs+28TchcoJ1iCdaOzQInET9rQvScX6XEyyGITkflxC/of+o635cmQ2+6GeMmERFkmGn8AHIdCxiDa0VlRgHSNEjK5LwZ1F8aWVR0HMyFLKkHj/kJkamSQyeOQbmyBdcLr6EZnQcCy9lTxHUeEtX0Tcv2xikvJxaZ2q78e31KfMqcFjpFrcWgZlLEFaHP5x5RmQudJE5YlKSGTx4Ust4eMe8CEZHkmSrYXIDkuGaZL/t5fbURJdiKUchmUmnQUVHTDEXhr3e6EKScZcXL/tTxpw9Ako2GMsdls1idg4pAL7odu38vtRtBKh0SHrbVFiLlkQm7FIBZuqUGRepoK/+nAPS8glb82eZuP/O3dt8NyqArHbkigy9BDHlhmqn5NSAr9koWQuO0YvDNd2Wl47ThWb0HM6r1o3VcE+e02FH96zP/B7EL3x7koPAu8u6sLXd8cxvrYQZj+VIDG2+Orcp0sRmHTPaTuOYPzZ1uxWtaL6rW16BUBeD0Qn4oYDky2RBF4Ko4lUBBhbSqHOWolar4+ji/yY3Dj8/eRs6vfV+Z2C4o3tAHZ9TjTcwb12UBHWSEab/n7+skfUHjEhdSywzh+rB55MTdQtyoH1ddFAMPweEX0fu+A/tAF/M86DTAcvATrEYfhOLkZpus6FDUdR+uOpcDZTcgxtsABKVY2XcYBgxSSlK04c+UEitTAsAjfUrE/Xp3rslHY7kLqlsPoaq/H6pgB1OVlw3TJV2LYC+B2G1rsetR8fxOXv34XOG1CcZN1wsvjEceWtaeMbwjHV+8ju6IfMavr0XW6C/V5kegpy0HhSRcQocPWPasRc6kWppMu4F4bTPsGsbB8J9bI/WO63YKyfQ7ot7Ti+KGNWPygAyUritHpzyWDxv0UGB7ux3c34lFzqgvbUgDxeh1y/tQAW0IpDn/ThRO7suD+phB/2GLx7Wd72I3iFYVo+YcO6w8dR2t5FoYOm3DsR15+ZIy9gmi2Ol9MamkURUUFvxRrzwWXezJIVW9GUZSQRrU3J6hDSKLyXicNPXDS3WtmKn9bQVHz8umok4joLjW8I5DwQQd5iIgedVD+3JA2FVrK3mamu09m2K9HHZQ/V6CMprvjhuTpzCdBqqXyKzMJgIfMHwokvN1AQTVdKSetVEE5x5yjb/XtTKKoufnU8YiIbtZS2twkqroWGKM+qlokkPazvnGtDO5NI2FeDh11+N945KTBfhsNPSGiM0ZSCNnU7Bgrb9ubRkJCGV18QkRPzGRURJHigw4a642HLm7UUpQinzqGiKi3jNRSLRWbh/zHh+jutUG6O0RE1ipKE4LHQp5Bav4oh4pbbaP1B/X7SjlphTSqsvrqOrpCoKjXy+jio7EizhP5pAiI87mPFCS8MxZH274MEub7xzBhH/qofFEUCSuOknOk/Nwc/z1DROSkoysEEpY3B4x7hK9PI/fUlPEN5LlIZQkCZQfdNx46t0FNwlsNZPPXfW6DloT5OWRcoSbF8mayPQkYk3QkLn53Gih7rkBp+2zjx+2/j4rPeEb7bf5QQYr8DhoKqGLoRD4p/GO/25RNQujvmb2WMoQoSto5OC4SjDE2m730M2Dt7e1QqVRQqVRob29/xrNVyDt4BmfOjr2+LQ/eXeNor0bzfR1S1XY0bB9bnhnltaMxOw7K2DgkLilA4+14FDXVY408tOAICXQfteJMZyWyBEBl+AInPjdAFbTbbvp+TcTtdgOQIjpqpuOfREQMdNqxAcRrNJA8HYbnEeC+1g/7YzvqlgQ8QRmdibpbIpw/3Bv3ZJ4uZw30EgtKUuKQnleC6m9tkC7QQDrj3YUSLA6aHZQgNSMF0sc3MHgLQMpKrF/0E9pWxyExowCb9lvgUuqgkgJuqxV2LETWkoCLIdGh6HAXvjRqRuuTx0x6sQAA0tR/R2pATOUZWVgc4YTV6pi29xP3IRVZaXKI1gEMjsz+zYmFanTjvxwxSikwNDTt8tuM4/ujFVaXiN7tiUFPvuZ+7YJ4xw6HFwCkyNpVg5URFnReVmHb/iJoAuuZp0dWQsDP6izoNYDdasWEc1QRMZDH+Hcjem3ou+aGu7sQyoCnb5XruuEedsB+T4TdOghxnh76+SFtqCfd0cgYY7PWS78Jf8eOHXjw4MHo31etWjXzkyMioUrSQz/ZZvf7bTDt6UN82QV8m9qGjOVV2Ny+FF2rVAGFVMhr+hJr4iSQzJEjPkEF6TSfF9H/lgJ9dh6ijWakH6pD8ydZ2Br4wTZdvyYkor/fBlGqR3zcs5w3EUnQlY8MvAu8ACR6VJ6u8T0JGnCORIiFNLSq+UXoGtCjt9sMc48FnZ8uQ+PhUnT9b41/I7kY9OE99GiCj/KIkIBG/C6g2VRs/f4W3u35Dh09FliOFKOlqRk1p89jzWj5aUY77V0e8rzhs/xWjCRYE50TuPQaclzy2xnWP1V8g66PCEAKw8Gz2JYS0pYkBrEj7Ys/4ScRwLADg1YXMH/q5HTqWEhCjkugMv4Zx9dpgktFSBEzH+j7WW0wxtjs9NLPgL04LnRWVKNHuR4HPtJA+uY21Lz3Giy7TOgM2DSOCClUyXrol6QiNWn65CuQ7uONMET1o7m++7m/08l9tQ4N3S6oDCux9HlnwKYg1WoQCxts/6eCboHO90qQwjlggdU1/kEC+6lGNF4AUldtxYH28/jbySLE3O6G5SYASTQkXhcc98a+N812+17IbIqIwUu9AfERYb3SB3fUAixMAMTrnaj7qg+RS9eg8uAJXL7yZxhghfmCHVKdDhoM4uKVgOh67eisKIHplGPGY3Zf64U1oFPuywMY9MZAk6CaWby8oX2wonfABYlOh4XPmVxMGd9A83SIlw7D/vchaEau2wINJI5+WGxD/qdmXWjbUo1ebSW+XBuN7opydAd+Bds/+9H7Q8DPrj702wGNVjf5U7cjIuKhiQecNx2QJOhG7x2V1w7LJTt+ipBAo4uH5Md+9P8YcN79fvTf4T1gjLFXz0v//567d+/Gjh07Rv/+TLxDsF3oRPe9gI+P38qRmp0KydlyVJ+ORtG3W6GTAIAUWRWVMPQUonxXN7KOGMbP9jwruQEbV2mQ+ZdaNHxiQOWC6fvlm48QMXSzB92nYiA+csI2YEZnZy+ccaU4vsv3FRTipTrk7ndi/ZEDMEwzifFMUopQuqQNJWUFiHlYiqzYYVjbq1DdE4PKv5aOKx5534Lq3W0YdNVgvU4C26l+OKMWQBMLIGIxUqNa0LG7GovLsyC50YzGywCig+twd5tQGCuiNFMO97U2VB25B43xAAxSQAIbOiqaYfl7DSpz4yFe+w43HkuhT4gFFqzHxnfaULi9ACaxFFlKf1/PSrA1JwbAjZmN+YcWFK+Lxs51ekhdvWjc1QFxUSXWp/kOS6Jeg3inDz2XDFi9RDUuXusz2rCpogDVYin0ymFYT1ah8bYGq3ethBx4rqf8poxvIEkWij7WoePzErw/pxJFS+RwX2lE9f5BLGh6F6UAXCfLUH1ehY1/3Yo1ch0Gvn8fpopu6I/4v1vC24+GD0sQXZEHXYQD5oPVsEiW4stVmtBuTUCKlRuK0JhTh4J1wLZVqZDet6BxVwvuZR/HGgDS9zbC0FSA2rWbIN2+EvGwoWNfLfqfAiPDsR4qgMmahQNH1mAmrTLG2L+sX3sT2gvTW0baCTa7R83NoaP3LlL56wJpN5wL2jBMRHT3cDYppFoq6/X46phoc/4oJzUvF0ix1uzfhG8mo0KgnNaArdXODsqfF0XqkTJT9cs5UkfA+4KCtG9mU/FeM9kCNop7zL4N7g0OmtS5jxQkLG8O3oR/rYqS5gaPyWM2+jZKP/C/MTRIRzfnUJJaIEFQkPZtIzVcCY2U35O7dG5nDqXNFyhKKpD6zXyqsoyN/25nGWUkCCTMVVPaB7Vkrs8hxevl1PeEiJ6co2K1goyHzVSVn0TquQIJ6jTK3xnw0AJ5yHaijLLfUJMgFUiRkEHGpr6x6+axUcdn+ZQ239dX9e/zqXak/SfnqFgdcj2Cxu/f8P5eLTVvyCCtQiBBoaWMtQ108cHYKR5rM+UvUpCgMJL5EdHdpgwSRsZARPQoJF5vGan2zFjUx5UnooubteMfkPAFnzryA+6paeIbem5fUzFlv6EgQRBI8UY2lbUO+uoZMpNxvkBpu/0/k+9hA7Xgu9d9G+yNVFtv9LUlKEj7TjE1Xxu77kHjmOA+IiJyWmrJ+JaWFIJAgjqJcj4zk80zdtxjPUply5N8x+dnkLHJTLXLFZS21zYWl0VVNBj6kAFjjM0yvyEi+rWTQMZ+HW605cRhc1Qr/tFumH6ZbRaz789E+hEdum4egP6lnxdnjLF/fa/wHjDGRvAeJMYYY+HFCRh7pf1OAkRKXuW5L59Iie8/HAnGGAsPXoJkjDHGGAszngFjjDHGGAszTsAYY4wxxsKMEzDGGGOMsTDjBIwxxhhjLMw4AWOMMcYYCzNOwBhjjDHGwowTMMYYY4yxMOMEjDHGGGMszDgBY4wxxhgLM07AGGOMMcbC7P8B/Ey429NejJwAAAAASUVORK5CYII=;" vertex="1" parent="1">
          <mxGeometry x="425" y="390" width="608" height="178" as="geometry" />
        </mxCell>
      </root>
    </mxGraphModel>
  </diagram>
</mxfile>
